<svg id="Layer_1" data-name="Layer 1" xmlns="http://www.w3.org/2000/svg" viewBox="0 0 1417.53 797.36"><defs><style>.cls-1{fill:#fff;}.cls-2{fill:none;stroke:#fff;stroke-miterlimit:10;stroke-width:4px;}</style></defs><title>video-bg-error</title><rect width="1417.53" height="797.36"/><path class="cls-1" d="M185.64,249.19a26.39,26.39,0,0,0,20.19,9.41c13.29,0,17.08-7.37,17.08-12.9,0-9.12-8.64-11.65-17.76-14.07C195,228.81,184.09,225.9,184.09,214c0-10.57,9.51-17.27,21.25-17.27,9.7,0,16.89,3.4,21.93,9.12l-3.69,4.08c-4.65-5.63-11.25-8.15-18.53-8.15-8.64,0-15.14,4.95-15.14,11.93,0,7.67,8.05,9.9,16.89,12.23,10.48,3,21.93,6.31,21.93,19.41,0,8.35-5.53,18.34-23,18.34-10.68,0-18.73-4.27-23.68-10.29Z"/><path class="cls-1" d="M239.11,239c0-13.68,8.83-24.55,22.52-24.55,13.87,0,22.61,10.87,22.61,24.55s-8.74,24.65-22.61,24.65C247.94,263.65,239.11,252.68,239.11,239Zm39.69,0c0-10.38-6.11-20-17.17-20-10.87,0-17.08,9.61-17.08,20s6.21,20.09,17.08,20.09C272.69,259.09,278.8,249.48,278.8,239Z"/><path class="cls-1" d="M353,229.68c0-6.59-2.81-10.67-9.41-10.67-5.05,0-10.77,3.69-13.39,8v35.52H325.1V229.68c0-6.59-2.72-10.67-9.42-10.67-4.95,0-10.58,3.78-13.39,8.05v35.43h-5.05V215.61h5.05v7.09c1.94-3,8.35-8.25,15.14-8.25,7.28,0,11.16,4.27,12.32,8.83,2.62-4.37,8.93-8.83,15.53-8.83,8.64,0,12.81,4.85,12.81,14.26v33.78h-5Z"/><path class="cls-1" d="M393.71,214.45c14.26,0,22.12,11.35,22.12,24.84v1.36h-39.2c.48,10.19,7.28,18.63,18.34,18.63a20.59,20.59,0,0,0,15.33-6.5l2.62,3.3c-4.66,4.85-10.58,7.57-18.34,7.57-13.68,0-23.48-10.19-23.48-24.65C371.1,225.42,380.7,214.45,393.71,214.45Zm-17.08,22.22h34.06c-.1-8-5.34-17.85-17.08-17.85C382.55,218.82,377,228.52,376.63,236.67Z"/><path class="cls-1" d="M429.81,253.46V220.08H422v-4.47h7.77V202.8H435v12.81h9.51v4.47H435v32.6c0,3.79,1.55,6.41,4.85,6.41a7.31,7.31,0,0,0,5.24-2.23l1.94,3.88c-1.84,1.75-4.07,2.91-8,2.91C432.82,263.65,429.81,259.87,429.81,253.46Z"/><path class="cls-1" d="M487.16,230.56c0-9-4.56-11.55-11.35-11.55-6,0-12.23,3.78-15.24,8.05v35.43h-5.05V197.76h5.05V222.7c3.4-4.08,10.09-8.25,16.89-8.25,9.51,0,14.75,4.46,14.75,15v33h-5Z"/><path class="cls-1" d="M506.57,203.77a4,4,0,0,1,3.88-3.88,3.89,3.89,0,0,1,0,7.77A4,4,0,0,1,506.57,203.77Zm1.36,11.84H513v46.88h-5.05Z"/><path class="cls-1" d="M560.33,230.75c0-9-4.56-11.74-11.35-11.74-6,0-12.23,3.78-15.24,8.05v35.43h-5V215.61h5v7.09c3.4-4.08,10.1-8.25,16.89-8.25,9.51,0,14.75,4.66,14.75,15.23v32.81h-5Z"/><path class="cls-1" d="M584.11,270.54c4.08,4.85,8.54,6.6,15.53,6.6,8.54,0,16-4.27,16-15v-7.38a20.3,20.3,0,0,1-16.3,8.74c-12.43,0-21-9.42-21-24.46,0-14.85,8.54-24.55,21-24.55a19.92,19.92,0,0,1,16.3,8.73v-7.57h5.14V262c0,14.36-9.7,19.51-21.15,19.51-7.86,0-12.91-1.46-18.44-7.09Zm31.54-43A18.87,18.87,0,0,0,600.22,219c-10.39,0-16.4,8.64-16.4,20s6,19.9,16.4,19.9a18.87,18.87,0,0,0,15.43-8.54Z"/><path class="cls-1" d="M688.63,222.41l-13.2,40.08h-4.85l-15.24-46.88h5.44L673.2,255.4l13.19-39.79h4.37L704,255.4l12.42-39.79h5.44l-15.24,46.88h-4.85Z"/><path class="cls-1" d="M751.22,214.45c14.27,0,22.13,11.35,22.13,24.84v1.36H734.14c.49,10.19,7.28,18.63,18.34,18.63a20.61,20.61,0,0,0,15.34-6.5l2.62,3.3c-4.66,4.85-10.58,7.57-18.34,7.57-13.69,0-23.49-10.19-23.49-24.65C728.61,225.42,738.22,214.45,751.22,214.45Zm-17.08,22.22H768.2c-.09-8-5.33-17.85-17.08-17.85C740.06,218.82,734.53,228.52,734.14,236.67Z"/><path class="cls-1" d="M818,230.75c0-9-4.56-11.74-11.35-11.74-6,0-12.23,3.78-15.24,8.05v35.43h-5V215.61h5v7.09c3.4-4.08,10.09-8.25,16.89-8.25,9.51,0,14.75,4.66,14.75,15.23v32.81h-5Z"/><path class="cls-1" d="M839.73,253.46V220.08H832v-4.47h7.77V202.8h5.14v12.81h9.51v4.47h-9.51v32.6c0,3.79,1.55,6.41,4.85,6.41a7.33,7.33,0,0,0,5.24-2.23l1.94,3.88c-1.84,1.75-4.07,2.91-7.95,2.91C842.74,263.65,839.73,259.87,839.73,253.46Z"/><path class="cls-1" d="M917.65,222.41l-13.19,40.08H899.6l-15.23-46.88h5.43l12.42,39.79,13.2-39.79h4.37L933,255.4l12.42-39.79h5.43l-15.23,46.88h-4.85Z"/><path class="cls-1" d="M960.35,215.61h5v8.06c4-5.24,9.32-9,15.82-9v5.53a10.84,10.84,0,0,0-2.52-.19c-4.76,0-11.16,4.27-13.3,8.35v34.16h-5Z"/><path class="cls-1" d="M988.4,239c0-13.68,8.83-24.55,22.52-24.55,13.87,0,22.61,10.87,22.61,24.55s-8.74,24.65-22.61,24.65C997.23,263.65,988.4,252.68,988.4,239Zm39.69,0c0-10.38-6.11-20-17.17-20-10.87,0-17.08,9.61-17.08,20s6.21,20.09,17.08,20.09C1022,259.09,1028.09,249.48,1028.09,239Z"/><path class="cls-1" d="M1078.17,230.75c0-9-4.56-11.74-11.36-11.74-6,0-12.22,3.78-15.23,8.05v35.43h-5V215.61h5v7.09c3.39-4.08,10.09-8.25,16.88-8.25,9.51,0,14.75,4.66,14.75,15.23v32.81h-5Z"/><path class="cls-1" d="M1102,270.54c4.07,4.85,8.54,6.6,15.52,6.6,8.54,0,16-4.27,16-15v-7.38a20.3,20.3,0,0,1-16.31,8.74c-12.42,0-21-9.42-21-24.46,0-14.85,8.54-24.55,21-24.55a19.92,19.92,0,0,1,16.31,8.73v-7.57h5.14V262c0,14.36-9.71,19.51-21.16,19.51-7.86,0-12.9-1.46-18.44-7.09Zm31.54-43a18.87,18.87,0,0,0-15.44-8.54c-10.38,0-16.4,8.64-16.4,20s6,19.9,16.4,19.9a18.87,18.87,0,0,0,15.44-8.54Z"/><path class="cls-1" d="M1182.1,214.93a4.23,4.23,0,1,1,0,8.45,4.23,4.23,0,1,1,0-8.45Zm0,40a4.38,4.38,0,0,1,4.37,4.17,4.48,4.48,0,0,1-4.37,4.37,4.4,4.4,0,0,1-4.27-4.37A4.29,4.29,0,0,1,1182.1,254.92Z"/><path class="cls-1" d="M1222.38,238.9a77.2,77.2,0,0,1,12.9-42.89l3,2.14C1232.18,210.66,1228,222,1228,238.9s4.17,28.24,10.28,40.67l-3,2.23A77.21,77.21,0,0,1,1222.38,238.9Z"/><path class="cls-1" d="M366.23,363c0-6.06,3.91-10.87,10-10.87s10,4.81,10,10.87-3.87,10.93-10,10.93S366.23,369.05,366.23,363Zm17.59,0c0-4.6-2.71-8.85-7.61-8.85s-7.57,4.25-7.57,8.85,2.75,8.9,7.57,8.9S383.82,367.63,383.82,363Z"/><path class="cls-1" d="M406,370.34a10.56,10.56,0,0,1-7.49,3.57c-4.25,0-6.53-2-6.53-6.67V352.62h2.23v14.1c0,4,2,5.16,5,5.16a9,9,0,0,0,6.75-3.44V352.62h2.23v20.77H406Z"/><path class="cls-1" d="M415.21,352.62h2.23v3.57c1.77-2.32,4.13-4,7-4v2.45a5,5,0,0,0-1.11-.08,7.94,7.94,0,0,0-5.9,3.69v15.14h-2.23Z"/><path class="cls-1" d="M439.5,369a8.66,8.66,0,0,0,6.71,3.05c3.48,0,5.55-1.72,5.55-4.12,0-2.67-2.84-3.44-5.81-4.22-3.48-.86-7.31-1.76-7.31-5.8,0-3.19,2.71-5.76,7.4-5.76a9.55,9.55,0,0,1,7.44,3.05l-1.25,1.59A7.57,7.57,0,0,0,446,354c-3.23,0-5.2,1.59-5.2,3.74,0,2.36,2.66,3,5.54,3.74,3.57.9,7.57,1.89,7.57,6.32,0,3.35-2.58,6.11-7.78,6.11a10,10,0,0,1-8-3.27Z"/><path class="cls-1" d="M459.71,381.3V352.62H462v3.27a8.91,8.91,0,0,1,7.22-3.78c5.55,0,9.29,4.21,9.29,10.87s-3.74,10.93-9.29,10.93A8.89,8.89,0,0,1,462,370V381.3Zm9.08-27.17a8.39,8.39,0,0,0-6.84,3.69V368.1a8.44,8.44,0,0,0,6.84,3.78c4.64,0,7.26-3.87,7.26-8.9S473.43,354.13,468.79,354.13Z"/><path class="cls-1" d="M493,352.11c6.32,0,9.8,5,9.8,11v.6H485.47c.21,4.52,3.22,8.26,8.13,8.26a9.12,9.12,0,0,0,6.79-2.88l1.16,1.46a10.72,10.72,0,0,1-8.13,3.36c-6.06,0-10.4-4.52-10.4-10.93C483,357,487.27,352.11,493,352.11ZM485.47,362h15.09c0-3.52-2.36-7.91-7.57-7.91C488.09,354,485.64,358.34,485.47,362Z"/><path class="cls-1" d="M517.5,352.11a8.57,8.57,0,0,1,7.36,3.52L523.31,357a6.57,6.57,0,0,0-5.68-2.88c-4.86,0-7.82,3.87-7.82,8.85s3,8.9,7.82,8.9a6.63,6.63,0,0,0,5.68-2.92l1.55,1.38a8.5,8.5,0,0,1-7.36,3.57c-6.1,0-10.1-4.86-10.1-10.93S511.4,352.11,517.5,352.11Z"/><path class="cls-1" d="M529.24,347.37a1.75,1.75,0,0,1,1.72-1.71,1.72,1.72,0,1,1,0,3.43A1.75,1.75,0,0,1,529.24,347.37Zm.6,5.25h2.24v20.77h-2.24Z"/><path class="cls-1" d="M552.25,370.94a9.06,9.06,0,0,1-7.06,3c-3.56,0-7.26-2.46-7.26-6.93s3.65-6.88,7.26-6.88a9,9,0,0,1,7.06,3v-4.21c0-3.1-2.5-4.78-5.59-4.78a8.11,8.11,0,0,0-6.5,3.06l-1.24-1.55a10.07,10.07,0,0,1,8-3.48c4.22,0,7.57,2,7.57,6.66v14.62h-2.23Zm0-6.19a7.79,7.79,0,0,0-6.28-2.88c-3.44,0-5.68,2.19-5.68,5.16s2.24,5.11,5.68,5.11a7.76,7.76,0,0,0,6.28-2.84Z"/><path class="cls-1" d="M561.45,344.71h2.23v28.68h-2.23Z"/><path class="cls-1" d="M570.05,347.37a1.74,1.74,0,0,1,1.72-1.71,1.72,1.72,0,1,1,0,3.43A1.75,1.75,0,0,1,570.05,347.37Zm.6,5.25h2.24v20.77h-2.24Z"/><path class="cls-1" d="M578.78,371.54l12.29-16.94H578.78v-2H594v1.81l-12.43,17h12.6v2H578.78Z"/><path class="cls-1" d="M608.83,352.11c6.32,0,9.81,5,9.81,11v.6H601.26c.22,4.52,3.23,8.26,8.13,8.26a9.16,9.16,0,0,0,6.8-2.88l1.16,1.46a10.73,10.73,0,0,1-8.13,3.36c-6.06,0-10.41-4.52-10.41-10.93C598.81,357,603.07,352.11,608.83,352.11ZM601.26,362h15.1c-.05-3.52-2.37-7.91-7.57-7.91C603.89,354,601.44,358.34,601.26,362Z"/><path class="cls-1" d="M639.71,370.08a8.87,8.87,0,0,1-7.23,3.83c-5.5,0-9.29-4.22-9.29-10.88s3.79-10.92,9.29-10.92a8.83,8.83,0,0,1,7.23,3.86V344.71H642v28.68h-2.28Zm0-12.17a8.31,8.31,0,0,0-6.84-3.78c-4.6,0-7.27,3.87-7.27,8.9s2.67,8.85,7.27,8.85a8.37,8.37,0,0,0,6.84-3.69Z"/><path class="cls-1" d="M660.52,369.39V354.6h-3.44v-2h3.44V347h2.28v5.67H667v2H662.8v14.45c0,1.67.68,2.83,2.15,2.83a3.25,3.25,0,0,0,2.32-1l.86,1.72a4.7,4.7,0,0,1-3.53,1.29C661.85,373.91,660.52,372.23,660.52,369.39Z"/><path class="cls-1" d="M680.73,352.11c6.32,0,9.8,5,9.8,11v.6H673.16c.21,4.52,3.23,8.26,8.13,8.26a9.12,9.12,0,0,0,6.79-2.88l1.16,1.46a10.72,10.72,0,0,1-8.13,3.36c-6.06,0-10.4-4.52-10.4-10.93C670.71,357,675,352.11,680.73,352.11ZM673.16,362h15.09c0-3.52-2.36-7.91-7.57-7.91C675.78,354,673.33,358.34,673.16,362Z"/><path class="cls-1" d="M709.49,370.94a9,9,0,0,1-7,3c-3.57,0-7.26-2.46-7.26-6.93s3.65-6.88,7.26-6.88a9,9,0,0,1,7,3v-4.21c0-3.1-2.49-4.78-5.59-4.78a8.08,8.08,0,0,0-6.49,3.06l-1.25-1.55a10.09,10.09,0,0,1,8-3.48c4.22,0,7.57,2,7.57,6.66v14.62h-2.24Zm0-6.19a7.76,7.76,0,0,0-6.27-2.88c-3.44,0-5.68,2.19-5.68,5.16s2.24,5.11,5.68,5.11a7.73,7.73,0,0,0,6.27-2.84Z"/><path class="cls-1" d="M743.42,358.86c0-2.93-1.25-4.73-4.17-4.73a7.69,7.69,0,0,0-5.93,3.52v15.74H731V358.86c0-2.93-1.21-4.73-4.17-4.73a8,8,0,0,0-5.94,3.57v15.69H718.7V352.62h2.23v3.14a9.15,9.15,0,0,1,6.71-3.65A5.23,5.23,0,0,1,733.1,356a8.62,8.62,0,0,1,6.88-3.91c3.83,0,5.68,2.14,5.68,6.32v15h-2.24Z"/><path class="cls-1" d="M762.55,363c0-6.06,3.92-10.87,10-10.87s10,4.81,10,10.87-3.87,10.93-10,10.93S762.55,369.05,762.55,363Zm17.59,0c0-4.6-2.71-8.85-7.61-8.85S765,358.38,765,363s2.75,8.9,7.57,8.9S780.14,367.63,780.14,363Z"/><path class="cls-1" d="M789,354.6H785.6v-2H789v-1.89c0-4.09,2.2-6.45,5.64-6.45a5.5,5.5,0,0,1,2.79.64l-.69,1.77a3.62,3.62,0,0,0-1.89-.48c-2.36,0-3.61,1.64-3.61,4.52v1.89h4.21v2h-4.21v18.79H789Z"/><path class="cls-1" d="M810.84,381.3V352.62h2.24v3.27a8.91,8.91,0,0,1,7.22-3.78c5.55,0,9.29,4.21,9.29,10.87s-3.74,10.93-9.29,10.93a8.89,8.89,0,0,1-7.22-3.87V381.3Zm9.08-27.17a8.41,8.41,0,0,0-6.84,3.69V368.1a8.46,8.46,0,0,0,6.84,3.78c4.64,0,7.26-3.87,7.26-8.9S824.56,354.13,819.92,354.13Z"/><path class="cls-1" d="M834.75,347.37a1.75,1.75,0,0,1,1.72-1.71,1.72,1.72,0,1,1,0,3.43A1.75,1.75,0,0,1,834.75,347.37Zm.6,5.25h2.24v20.77h-2.24Z"/><path class="cls-1" d="M859.86,370.08a8.85,8.85,0,0,1-7.22,3.83c-5.51,0-9.29-4.22-9.29-10.88s3.78-10.92,9.29-10.92a8.8,8.8,0,0,1,7.22,3.86V344.71h2.28v28.68h-2.28Zm0-12.17a8.28,8.28,0,0,0-6.83-3.78c-4.61,0-7.27,3.87-7.27,8.9s2.66,8.85,7.27,8.85a8.33,8.33,0,0,0,6.83-3.69Z"/><path class="cls-1" d="M870.44,377c1.81,2.15,3.78,2.92,6.88,2.92,3.78,0,7.1-1.89,7.1-6.66V370a9,9,0,0,1-7.23,3.87c-5.5,0-9.29-4.17-9.29-10.84s3.79-10.87,9.29-10.87a8.83,8.83,0,0,1,7.23,3.86v-3.35h2.27v20.55c0,6.37-4.3,8.65-9.37,8.65-3.48,0-5.72-.65-8.17-3.14Zm14-19a8.37,8.37,0,0,0-6.84-3.78c-4.6,0-7.27,3.82-7.27,8.85s2.67,8.82,7.27,8.82a8.36,8.36,0,0,0,6.84-3.79Z"/><path class="cls-1" d="M902.43,352.11c6.32,0,9.81,5,9.81,11v.6H894.86c.22,4.52,3.23,8.26,8.13,8.26a9.16,9.16,0,0,0,6.8-2.88l1.16,1.46a10.73,10.73,0,0,1-8.13,3.36c-6.06,0-10.41-4.52-10.41-10.93C892.41,357,896.67,352.11,902.43,352.11ZM894.86,362H910c-.05-3.52-2.37-7.91-7.57-7.91C897.49,354,895,358.34,894.86,362Z"/><path class="cls-1" d="M916.79,363c0-6.06,3.92-10.87,10-10.87s10,4.81,10,10.87-3.87,10.93-10,10.93S916.79,369.05,916.79,363Zm17.59,0c0-4.6-2.71-8.85-7.61-8.85s-7.57,4.25-7.57,8.85,2.75,8.9,7.57,8.9S934.38,367.63,934.38,363Z"/><path class="cls-1" d="M956.57,359.33c0-4-2-5.2-5-5.2a8.85,8.85,0,0,0-6.75,3.57v15.69h-2.24V352.62h2.24v3.14a10.49,10.49,0,0,1,7.48-3.65c4.21,0,6.53,2.06,6.53,6.75v14.53h-2.23Z"/><path class="cls-1" d="M965.3,369A8.63,8.63,0,0,0,972,372c3.48,0,5.54-1.72,5.54-4.12,0-2.67-2.84-3.44-5.8-4.22-3.49-.86-7.31-1.76-7.31-5.8,0-3.19,2.71-5.76,7.39-5.76a9.53,9.53,0,0,1,7.44,3.05L978,356.75a7.59,7.59,0,0,0-6.2-2.75c-3.22,0-5.2,1.59-5.2,3.74,0,2.36,2.67,3,5.55,3.74,3.57.9,7.57,1.89,7.57,6.32,0,3.35-2.58,6.11-7.79,6.11a10.07,10.07,0,0,1-8-3.27Z"/><path class="cls-1" d="M1009.84,370.94a9,9,0,0,1-7.05,3c-3.57,0-7.26-2.46-7.26-6.93s3.65-6.88,7.26-6.88a9,9,0,0,1,7.05,3v-4.21c0-3.1-2.49-4.78-5.59-4.78a8.08,8.08,0,0,0-6.49,3.06l-1.25-1.55a10.09,10.09,0,0,1,8-3.48c4.22,0,7.57,2,7.57,6.66v14.62h-2.24Zm0-6.19a7.76,7.76,0,0,0-6.27-2.88c-3.44,0-5.68,2.19-5.68,5.16s2.24,5.11,5.68,5.11a7.73,7.73,0,0,0,6.27-2.84Z"/><path class="cls-1" d="M1019.05,352.62h2.23v3.57c1.76-2.32,4.13-4,7-4v2.45a5.1,5.1,0,0,0-1.12-.08,7.94,7.94,0,0,0-5.89,3.69v15.14h-2.23Z"/><path class="cls-1" d="M1041.49,352.11c6.32,0,9.8,5,9.8,11v.6h-17.37c.22,4.52,3.23,8.26,8.13,8.26a9.12,9.12,0,0,0,6.79-2.88l1.17,1.46a10.73,10.73,0,0,1-8.13,3.36c-6.06,0-10.41-4.52-10.41-10.93C1031.47,357,1035.73,352.11,1041.49,352.11Zm-7.57,9.84H1049c0-3.52-2.37-7.91-7.57-7.91C1036.55,354,1034.1,358.34,1033.92,362Z"/><path class="cls-1" d="M439.57,395.63l-5.85,17.76h-2.15l-6.75-20.77h2.41l5.5,17.63,5.85-17.63h1.93l5.85,17.63,5.5-17.63h2.41l-6.75,20.77h-2.15Z"/><path class="cls-1" d="M457.28,403c0-6.06,3.92-10.87,10-10.87s10,4.81,10,10.87-3.87,10.93-10,10.93S457.28,409.05,457.28,403Zm17.59,0c0-4.6-2.71-8.85-7.61-8.85s-7.57,4.25-7.57,8.85,2.75,8.9,7.57,8.9S474.87,407.63,474.87,403Z"/><path class="cls-1" d="M483,392.62h2.24v3.57c1.76-2.32,4.12-4,7-4v2.45a5,5,0,0,0-1.11-.08,7.9,7.9,0,0,0-5.89,3.69v15.14H483Z"/><path class="cls-1" d="M502.78,403.5l-3.87,3.65v6.24h-2.24V384.71h2.24v19.78l12.25-11.87h3L504.45,402l9.63,11.4h-3Z"/><path class="cls-1" d="M517.78,387.37a1.75,1.75,0,0,1,1.72-1.71,1.72,1.72,0,1,1,0,3.43A1.75,1.75,0,0,1,517.78,387.37Zm.6,5.25h2.24v20.77h-2.24Z"/><path class="cls-1" d="M541.6,399.33c0-4-2-5.2-5-5.2a8.89,8.89,0,0,0-6.75,3.57v15.69h-2.23V392.62h2.23v3.14a10.51,10.51,0,0,1,7.48-3.65c4.22,0,6.54,2.06,6.54,6.75v14.53H541.6Z"/><path class="cls-1" d="M552.14,417c1.81,2.15,3.78,2.92,6.88,2.92,3.78,0,7.09-1.89,7.09-6.66V410a9,9,0,0,1-7.22,3.87c-5.5,0-9.29-4.17-9.29-10.84s3.79-10.87,9.29-10.87a8.8,8.8,0,0,1,7.22,3.86v-3.35h2.28v20.55c0,6.37-4.3,8.65-9.37,8.65-3.48,0-5.72-.65-8.17-3.14Zm14-19a8.34,8.34,0,0,0-6.83-3.78c-4.6,0-7.27,3.82-7.27,8.85s2.67,8.82,7.27,8.82a8.32,8.32,0,0,0,6.83-3.79Z"/><path class="cls-1" d="M600.47,399.24c0-4-2-5.11-5-5.11a8.85,8.85,0,0,0-6.75,3.57v15.69h-2.24V384.71h2.24v11.05a10.49,10.49,0,0,1,7.48-3.65c4.21,0,6.54,2,6.54,6.66v14.62h-2.24Z"/><path class="cls-1" d="M622.87,410.94a9,9,0,0,1-7,3c-3.57,0-7.27-2.46-7.27-6.93s3.66-6.88,7.27-6.88a9,9,0,0,1,7,3v-4.21c0-3.1-2.49-4.78-5.59-4.78a8.08,8.08,0,0,0-6.49,3.06l-1.25-1.55a10.09,10.09,0,0,1,8-3.48c4.21,0,7.57,2,7.57,6.66v14.62h-2.24Zm0-6.19a7.77,7.77,0,0,0-6.28-2.88c-3.44,0-5.67,2.19-5.67,5.16s2.23,5.11,5.67,5.11a7.73,7.73,0,0,0,6.28-2.84Z"/><path class="cls-1" d="M632.07,392.62h2.24v3.57c1.76-2.32,4.13-4,7-4v2.45a5.1,5.1,0,0,0-1.12-.08,7.92,7.92,0,0,0-5.89,3.69v15.14h-2.24Z"/><path class="cls-1" d="M661,410.08a8.85,8.85,0,0,1-7.22,3.83c-5.5,0-9.29-4.22-9.29-10.88s3.79-10.92,9.29-10.92A8.8,8.8,0,0,1,661,396V384.71h2.28v28.68H661Zm0-12.17a8.28,8.28,0,0,0-6.83-3.78c-4.6,0-7.27,3.87-7.27,8.9s2.67,8.85,7.27,8.85a8.33,8.33,0,0,0,6.83-3.69Z"/><path class="cls-1" d="M681.82,409.39V394.6h-3.44v-2h3.44V387h2.28v5.67h4.22v2H684.1v14.45c0,1.67.69,2.83,2.15,2.83a3.3,3.3,0,0,0,2.33-1l.86,1.72a4.7,4.7,0,0,1-3.53,1.29C683.16,413.91,681.82,412.23,681.82,409.39Z"/><path class="cls-1" d="M692,403c0-6.06,3.91-10.87,10-10.87s10,4.81,10,10.87-3.87,10.93-10,10.93S692,409.05,692,403Zm17.58,0c0-4.6-2.71-8.85-7.61-8.85s-7.57,4.25-7.57,8.85,2.76,8.9,7.57,8.9S709.6,407.63,709.6,403Z"/><path class="cls-1" d="M728.44,409a8.62,8.62,0,0,0,6.7,3.05c3.49,0,5.55-1.72,5.55-4.12,0-2.67-2.84-3.44-5.8-4.22-3.49-.86-7.31-1.76-7.31-5.8,0-3.19,2.71-5.76,7.39-5.76a9.53,9.53,0,0,1,7.44,3.05l-1.25,1.59A7.57,7.57,0,0,0,735,394c-3.22,0-5.2,1.59-5.2,3.74,0,2.36,2.66,3,5.55,3.74,3.56.9,7.56,1.89,7.56,6.32,0,3.35-2.58,6.11-7.78,6.11a10.07,10.07,0,0,1-8-3.27Z"/><path class="cls-1" d="M747.44,403c0-6.06,3.92-10.87,10-10.87s10,4.81,10,10.87-3.87,10.93-10,10.93S747.44,409.05,747.44,403ZM765,403c0-4.6-2.71-8.85-7.61-8.85s-7.57,4.25-7.57,8.85,2.75,8.9,7.57,8.9S765,407.63,765,403Z"/><path class="cls-1" d="M773.2,384.71h2.23v28.68H773.2Z"/><path class="cls-1" d="M779.22,392.62h2.49l7.57,18.15,7.48-18.15h2.54l-8.77,20.77H788Z"/><path class="cls-1" d="M811.9,392.11c6.32,0,9.8,5,9.8,11v.6H804.33c.21,4.52,3.22,8.26,8.13,8.26a9.12,9.12,0,0,0,6.79-2.88l1.16,1.46a10.71,10.71,0,0,1-8.12,3.36c-6.07,0-10.41-4.52-10.41-10.93C801.88,397,806.14,392.11,811.9,392.11ZM804.33,402h15.09c0-3.52-2.36-7.91-7.56-7.91C807,394,804.5,398.34,804.33,402Z"/><path class="cls-1" d="M839,409.39V394.6h-3.44v-2H839V387h2.28v5.67h4.21v2h-4.21v14.45c0,1.67.69,2.83,2.15,2.83a3.25,3.25,0,0,0,2.32-1l.86,1.72a4.69,4.69,0,0,1-3.52,1.29C840.36,413.91,839,412.23,839,409.39Z"/><path class="cls-1" d="M864.44,399.24c0-4-2-5.11-5-5.11a8.85,8.85,0,0,0-6.75,3.57v15.69h-2.24V384.71h2.24v11.05a10.51,10.51,0,0,1,7.48-3.65c4.22,0,6.54,2,6.54,6.66v14.62h-2.24Z"/><path class="cls-1" d="M882.46,392.11c6.32,0,9.8,5,9.8,11v.6H874.89c.22,4.52,3.23,8.26,8.13,8.26a9.12,9.12,0,0,0,6.79-2.88l1.16,1.46a10.7,10.7,0,0,1-8.12,3.36c-6.07,0-10.41-4.52-10.41-10.93C872.44,397,876.7,392.11,882.46,392.11ZM874.89,402H890c0-3.52-2.36-7.91-7.56-7.91C877.51,394,875.06,398.34,874.89,402Z"/><path class="cls-1" d="M918.06,392.11a8.55,8.55,0,0,1,7.35,3.52L923.87,397a6.57,6.57,0,0,0-5.68-2.88c-4.86,0-7.82,3.87-7.82,8.85s3,8.9,7.82,8.9a6.63,6.63,0,0,0,5.68-2.92l1.54,1.38a8.48,8.48,0,0,1-7.35,3.57c-6.1,0-10.1-4.86-10.1-10.93S912,392.11,918.06,392.11Z"/><path class="cls-1" d="M943.6,410.94a9,9,0,0,1-7.05,3c-3.57,0-7.26-2.46-7.26-6.93s3.65-6.88,7.26-6.88a9,9,0,0,1,7.05,3v-4.21c0-3.1-2.49-4.78-5.59-4.78a8.08,8.08,0,0,0-6.49,3.06l-1.25-1.55a10.09,10.09,0,0,1,8-3.48c4.21,0,7.57,2,7.57,6.66v14.62H943.6Zm0-6.19a7.76,7.76,0,0,0-6.27-2.88c-3.45,0-5.68,2.19-5.68,5.16s2.23,5.11,5.68,5.11a7.73,7.73,0,0,0,6.27-2.84Z"/><path class="cls-1" d="M952.33,409A8.66,8.66,0,0,0,959,412c3.48,0,5.55-1.72,5.55-4.12,0-2.67-2.84-3.44-5.81-4.22-3.48-.86-7.31-1.76-7.31-5.8,0-3.19,2.71-5.76,7.4-5.76a9.55,9.55,0,0,1,7.44,3.05l-1.25,1.59a7.57,7.57,0,0,0-6.19-2.75c-3.23,0-5.2,1.59-5.2,3.74,0,2.36,2.66,3,5.54,3.74,3.57.9,7.57,1.89,7.57,6.32,0,3.35-2.58,6.11-7.78,6.11a10,10,0,0,1-8-3.27Z"/><path class="cls-1" d="M981.36,392.11c6.32,0,9.8,5,9.8,11v.6H973.79c.21,4.52,3.22,8.26,8.13,8.26a9.12,9.12,0,0,0,6.79-2.88l1.16,1.46a10.72,10.72,0,0,1-8.13,3.36c-6.06,0-10.4-4.52-10.4-10.93C971.34,397,975.6,392.11,981.36,392.11ZM973.79,402h15.09c0-3.52-2.36-7.91-7.57-7.91C976.41,394,974,398.34,973.79,402Z"/><path class="cls-1" d="M420.3,467.91h2.45v28.68H420.3Z"/><path class="cls-1" d="M443.82,482.53c0-4-2-5.21-5-5.21a8.92,8.92,0,0,0-6.75,3.57v15.7h-2.23V475.82H432V479a10.52,10.52,0,0,1,7.48-3.66c4.22,0,6.54,2.07,6.54,6.75v14.54h-2.24Z"/><path class="cls-1" d="M464.59,492.59V477.8h-3.44v-2h3.44v-5.68h2.28v5.68h4.22v2h-4.22v14.44c0,1.68.69,2.84,2.15,2.84a3.22,3.22,0,0,0,2.32-1l.86,1.72a4.62,4.62,0,0,1-3.52,1.29C465.93,497.1,464.59,495.43,464.59,492.59Z"/><path class="cls-1" d="M490,482.44c0-4-2-5.12-5-5.12a8.92,8.92,0,0,0-6.75,3.57v15.7H476V467.91h2.23v11a10.54,10.54,0,0,1,7.48-3.66c4.22,0,6.54,2,6.54,6.67v14.62H490Z"/><path class="cls-1" d="M508,475.3c6.32,0,9.81,5,9.81,11v.6H500.45c.22,4.52,3.23,8.26,8.13,8.26a9.12,9.12,0,0,0,6.79-2.88l1.17,1.46a10.73,10.73,0,0,1-8.13,3.35c-6.06,0-10.41-4.51-10.41-10.92C498,480.16,502.26,475.3,508,475.3Zm-7.57,9.85h15.1c0-3.53-2.37-7.91-7.57-7.91C503.08,477.24,500.63,481.54,500.45,485.15Z"/><path class="cls-1" d="M559.45,482.05c0-2.92-1.25-4.73-4.17-4.73a7.72,7.72,0,0,0-5.94,3.53v15.74h-2.27V482.05c0-2.92-1.21-4.73-4.18-4.73-2.19,0-4.68,1.68-5.93,3.57v15.7h-2.24V475.82H537V479a9.12,9.12,0,0,1,6.71-3.66,5.23,5.23,0,0,1,5.46,3.91A8.63,8.63,0,0,1,556,475.3c3.83,0,5.67,2.15,5.67,6.32v15h-2.23Z"/><path class="cls-1" d="M577.47,475.3c6.32,0,9.8,5,9.8,11v.6H569.9c.21,4.52,3.22,8.26,8.12,8.26a9.13,9.13,0,0,0,6.8-2.88l1.16,1.46a10.73,10.73,0,0,1-8.13,3.35c-6.06,0-10.4-4.51-10.4-10.92C567.45,480.16,571.7,475.3,577.47,475.3Zm-7.57,9.85H585c0-3.53-2.37-7.91-7.57-7.91C572.52,477.24,570.07,481.54,569.9,485.15Z"/><path class="cls-1" d="M606.23,494.14a9,9,0,0,1-7.05,3c-3.57,0-7.27-2.45-7.27-6.92s3.66-6.88,7.27-6.88a9,9,0,0,1,7.05,3v-4.22c0-3.09-2.49-4.77-5.59-4.77a8.07,8.07,0,0,0-6.49,3.05l-1.25-1.55a10.09,10.09,0,0,1,8-3.48c4.21,0,7.57,2,7.57,6.67v14.62h-2.24Zm0-6.2a7.8,7.8,0,0,0-6.28-2.88c-3.44,0-5.67,2.2-5.67,5.16s2.23,5.12,5.67,5.12a7.76,7.76,0,0,0,6.28-2.84Z"/><path class="cls-1" d="M629.45,482.53c0-4-2-5.21-5-5.21a8.88,8.88,0,0,0-6.75,3.57v15.7h-2.24V475.82h2.24V479a10.5,10.5,0,0,1,7.48-3.66c4.22,0,6.54,2.07,6.54,6.75v14.54h-2.24Z"/><path class="cls-1" d="M639.08,492.59V477.8h-3.44v-2h3.44v-5.68h2.28v5.68h4.22v2h-4.22v14.44c0,1.68.69,2.84,2.15,2.84a3.22,3.22,0,0,0,2.32-1l.86,1.72a4.62,4.62,0,0,1-3.52,1.29C640.42,497.1,639.08,495.43,639.08,492.59Z"/><path class="cls-1" d="M649.88,470.57a1.75,1.75,0,0,1,1.72-1.72,1.72,1.72,0,1,1-1.72,1.72Zm.6,5.25h2.23v20.77h-2.23Z"/><path class="cls-1" d="M684.4,482.05c0-2.92-1.24-4.73-4.17-4.73a7.72,7.72,0,0,0-5.93,3.53v15.74H672V482.05c0-2.92-1.2-4.73-4.17-4.73a8,8,0,0,0-5.93,3.57v15.7h-2.24V475.82h2.24V479a9.1,9.1,0,0,1,6.7-3.66,5.22,5.22,0,0,1,5.46,3.91A8.67,8.67,0,0,1,681,475.3c3.83,0,5.68,2.15,5.68,6.32v15H684.4Z"/><path class="cls-1" d="M702.42,475.3c6.32,0,9.8,5,9.8,11v.6H694.85c.22,4.52,3.23,8.26,8.13,8.26a9.12,9.12,0,0,0,6.79-2.88l1.16,1.46a10.69,10.69,0,0,1-8.12,3.35c-6.07,0-10.41-4.51-10.41-10.92C692.4,480.16,696.66,475.3,702.42,475.3Zm-7.57,9.85H710c-.05-3.53-2.37-7.91-7.57-7.91C697.48,477.24,695,481.54,694.85,485.15Z"/><path class="cls-1" d="M716.61,500.8a5.85,5.85,0,0,0,2.5-4l-.43.05a1.73,1.73,0,0,1-1.77-1.81,1.87,1.87,0,0,1,1.85-1.85c1.16,0,2.19,1,2.19,2.76a7.6,7.6,0,0,1-3.09,5.89Z"/><path class="cls-1" d="M738.15,504.5V475.82h2.24v3.27a8.92,8.92,0,0,1,7.22-3.79c5.55,0,9.29,4.22,9.29,10.88s-3.74,10.92-9.29,10.92a8.86,8.86,0,0,1-7.22-3.87V504.5Zm9.08-27.18a8.38,8.38,0,0,0-6.84,3.7V491.3a8.44,8.44,0,0,0,6.84,3.78c4.64,0,7.26-3.87,7.26-8.9S751.87,477.32,747.23,477.32Z"/><path class="cls-1" d="M762.66,467.91h2.24v28.68h-2.24Z"/><path class="cls-1" d="M780.68,475.3c6.32,0,9.8,5,9.8,11v.6H773.11c.22,4.52,3.23,8.26,8.13,8.26a9.12,9.12,0,0,0,6.79-2.88l1.16,1.46a10.69,10.69,0,0,1-8.12,3.35c-6.07,0-10.41-4.51-10.41-10.92C770.66,480.16,774.92,475.3,780.68,475.3Zm-7.57,9.85H788.2c0-3.53-2.36-7.91-7.56-7.91C775.73,477.24,773.28,481.54,773.11,485.15Z"/><path class="cls-1" d="M809.45,494.14a9.06,9.06,0,0,1-7.06,3c-3.56,0-7.26-2.45-7.26-6.92s3.65-6.88,7.26-6.88a9,9,0,0,1,7.06,3v-4.22c0-3.09-2.5-4.77-5.59-4.77a8.09,8.09,0,0,0-6.5,3.05l-1.24-1.55a10.07,10.07,0,0,1,8-3.48c4.22,0,7.57,2,7.57,6.67v14.62h-2.23Zm0-6.2a7.82,7.82,0,0,0-6.28-2.88c-3.44,0-5.68,2.2-5.68,5.16s2.24,5.12,5.68,5.12a7.79,7.79,0,0,0,6.28-2.84Z"/><path class="cls-1" d="M818.17,492.16a8.69,8.69,0,0,0,6.71,3c3.49,0,5.55-1.72,5.55-4.13,0-2.66-2.84-3.44-5.81-4.21-3.48-.86-7.31-1.76-7.31-5.81,0-3.18,2.71-5.76,7.4-5.76a9.55,9.55,0,0,1,7.44,3.06L830.9,480a7.55,7.55,0,0,0-6.19-2.76c-3.22,0-5.2,1.59-5.2,3.75,0,2.36,2.66,3,5.54,3.74,3.57.9,7.57,1.89,7.57,6.32,0,3.35-2.58,6.1-7.78,6.1a10.07,10.07,0,0,1-8-3.27Z"/><path class="cls-1" d="M847.2,475.3c6.32,0,9.8,5,9.8,11v.6H839.63c.22,4.52,3.23,8.26,8.13,8.26a9.12,9.12,0,0,0,6.79-2.88l1.16,1.46a10.69,10.69,0,0,1-8.12,3.35c-6.07,0-10.41-4.51-10.41-10.92C837.18,480.16,841.44,475.3,847.2,475.3Zm-7.57,9.85h15.09c0-3.53-2.36-7.91-7.56-7.91C842.25,477.24,839.8,481.54,839.63,485.15Z"/><path class="cls-1" d="M873.9,475.82h2.24v3.57c1.76-2.32,4.13-4,7-4v2.45a4.54,4.54,0,0,0-1.12-.09,7.92,7.92,0,0,0-5.89,3.7v15.14H873.9Z"/><path class="cls-1" d="M896.35,475.3c6.32,0,9.8,5,9.8,11v.6H888.78c.21,4.52,3.22,8.26,8.13,8.26a9.12,9.12,0,0,0,6.79-2.88l1.16,1.46a10.71,10.71,0,0,1-8.13,3.35c-6.06,0-10.4-4.51-10.4-10.92C886.33,480.16,890.58,475.3,896.35,475.3Zm-7.57,9.85h15.09c0-3.53-2.36-7.91-7.57-7.91C891.4,477.24,889,481.54,888.78,485.15Z"/><path class="cls-1" d="M912.64,477.8H909.2v-2h3.44v-1.89c0-4.09,2.2-6.45,5.64-6.45a5.5,5.5,0,0,1,2.79.64l-.69,1.76a3.62,3.62,0,0,0-1.89-.47c-2.36,0-3.61,1.63-3.61,4.52v1.89h4.21v2h-4.21v18.79h-2.24Z"/><path class="cls-1" d="M923.31,475.82h2.23v3.57c1.77-2.32,4.13-4,7-4v2.45a4.54,4.54,0,0,0-1.12-.09,8,8,0,0,0-5.89,3.7v15.14h-2.23Z"/><path class="cls-1" d="M945.75,475.3c6.32,0,9.81,5,9.81,11v.6H938.18c.22,4.52,3.23,8.26,8.13,8.26a9.12,9.12,0,0,0,6.79-2.88l1.17,1.46a10.73,10.73,0,0,1-8.13,3.35c-6.06,0-10.41-4.51-10.41-10.92C935.73,480.16,940,475.3,945.75,475.3Zm-7.57,9.85h15.1c0-3.53-2.37-7.91-7.57-7.91C940.81,477.24,938.36,481.54,938.18,485.15Z"/><path class="cls-1" d="M960.84,492.16a8.69,8.69,0,0,0,6.71,3c3.49,0,5.55-1.72,5.55-4.13,0-2.66-2.84-3.44-5.81-4.21-3.48-.86-7.3-1.76-7.3-5.81,0-3.18,2.7-5.76,7.39-5.76a9.55,9.55,0,0,1,7.44,3.06L973.57,480a7.55,7.55,0,0,0-6.19-2.76c-3.22,0-5.2,1.59-5.2,3.75,0,2.36,2.66,3,5.54,3.74,3.57.9,7.57,1.89,7.57,6.32,0,3.35-2.58,6.1-7.78,6.1a10.07,10.07,0,0,1-8-3.27Z"/><path class="cls-1" d="M995.07,482.44c0-4-2-5.12-5-5.12a8.9,8.9,0,0,0-6.75,3.57v15.7h-2.23V467.91h2.23v11a10.52,10.52,0,0,1,7.48-3.66c4.22,0,6.54,2,6.54,6.67v14.62h-2.24Z"/><path class="cls-1" d="M590.75,543c1.38,0,2.32-.56,3.14-2.53l1.63-3.7-8.77-20.94h2.5L596.81,534l7.49-18.14h2.53l-10.75,25.32c-1.11,2.63-2.88,3.87-5.33,3.87a8.34,8.34,0,0,1-2.19-.3l.39-2.06A5,5,0,0,0,590.75,543Z"/><path class="cls-1" d="M609.41,526.18c0-6.06,3.92-10.88,10-10.88s10,4.82,10,10.88-3.87,10.92-10,10.92S609.41,532.24,609.41,526.18Zm17.59,0c0-4.6-2.71-8.86-7.61-8.86s-7.57,4.26-7.57,8.86,2.75,8.9,7.57,8.9S627,530.82,627,526.18Z"/><path class="cls-1" d="M649.19,533.53a10.5,10.5,0,0,1-7.48,3.57c-4.26,0-6.54-2-6.54-6.66V515.82h2.24v14.1c0,4,2,5.16,5,5.16a9,9,0,0,0,6.75-3.44V515.82h2.23v20.77h-2.23Z"/><path class="cls-1" d="M658.39,515.82h2.24v3.57c1.76-2.32,4.12-4,7-4v2.45a4.42,4.42,0,0,0-1.11-.09,7.92,7.92,0,0,0-5.89,3.7v15.14h-2.24Z"/><path class="cls-1" d="M683.16,507.91h2.23v11.26a8.89,8.89,0,0,1,7.23-3.87c5.54,0,9.28,4.35,9.28,10.92s-3.78,10.88-9.28,10.88a8.84,8.84,0,0,1-7.23-3.82v3.31h-2.23Zm9.07,27.17c4.64,0,7.27-3.83,7.27-8.86s-2.63-8.9-7.27-8.9a8.48,8.48,0,0,0-6.84,3.79v10.27A8.41,8.41,0,0,0,692.23,535.08Z"/><path class="cls-1" d="M707.71,515.82H710v3.57c1.76-2.32,4.12-4,7-4v2.45a4.42,4.42,0,0,0-1.11-.09,7.92,7.92,0,0,0-5.89,3.7v15.14h-2.24Z"/><path class="cls-1" d="M720.14,526.18c0-6.06,3.91-10.88,10-10.88s10,4.82,10,10.88-3.87,10.92-10,10.92S720.14,532.24,720.14,526.18Zm17.58,0c0-4.6-2.71-8.86-7.61-8.86s-7.57,4.26-7.57,8.86,2.76,8.9,7.57,8.9S737.72,530.82,737.72,526.18Z"/><path class="cls-1" d="M757.89,518.83,752,536.59h-2.15l-6.75-20.77h2.41l5.5,17.63,5.85-17.63h1.94l5.84,17.63,5.51-17.63h2.41l-6.76,20.77H763.7Z"/><path class="cls-1" d="M776.34,532.16a8.66,8.66,0,0,0,6.7,3.05c3.49,0,5.55-1.72,5.55-4.13,0-2.66-2.84-3.44-5.8-4.21-3.49-.86-7.31-1.76-7.31-5.81,0-3.18,2.71-5.76,7.39-5.76a9.54,9.54,0,0,1,7.44,3.06L789.06,520a7.55,7.55,0,0,0-6.19-2.76c-3.22,0-5.2,1.59-5.2,3.75,0,2.36,2.67,3,5.55,3.74,3.57.9,7.56,1.89,7.56,6.32,0,3.35-2.58,6.1-7.78,6.1a10.07,10.07,0,0,1-8-3.27Z"/><path class="cls-1" d="M805.36,515.3c6.32,0,9.8,5,9.8,11v.6H797.79c.22,4.52,3.23,8.26,8.13,8.26a9.12,9.12,0,0,0,6.79-2.88l1.16,1.46a10.69,10.69,0,0,1-8.12,3.35c-6.06,0-10.41-4.51-10.41-10.92C795.34,520.16,799.6,515.3,805.36,515.3Zm-7.57,9.85h15.1c0-3.53-2.37-7.91-7.57-7.91C800.42,517.24,798,521.54,797.79,525.15Z"/><path class="cls-1" d="M820.93,515.82h2.23v3.57c1.77-2.32,4.13-4,7-4v2.45a4.5,4.5,0,0,0-1.12-.09,8,8,0,0,0-5.89,3.7v15.14h-2.23Z"/><path class="cls-2" d="M734.05,595.73l-21.89,11.88"/><path class="cls-2" d="M672.83,648a42,42,0,1,0,58.44-38.66,52.71,52.71,0,0,0-19.11-2.17"/><line class="cls-2" x1="730.64" y1="627.37" x2="712.16" y2="606.45"/></svg>