<svg id="Layer_1" data-name="Layer 1" xmlns="http://www.w3.org/2000/svg" viewBox="0 0 1417.53 797.36"><defs><style>.cls-1{fill:#fff;}.cls-2,.cls-3,.cls-4,.cls-5{fill:none;stroke:#fff;stroke-miterlimit:10;}.cls-2{stroke-width:4px;}.cls-3,.cls-5{stroke-width:0.75px;}.cls-5{stroke-dasharray:12.53 12.53;}</style></defs><title>video-bg-error</title><rect width="1417.53" height="797.36"/><path class="cls-1" d="M185.64,168.39a26.36,26.36,0,0,0,20.19,9.42c13.29,0,17.08-7.38,17.08-12.91,0-9.12-8.64-11.65-17.76-14.07C195,148,184.09,145.1,184.09,133.17c0-10.58,9.51-17.28,21.25-17.28,9.7,0,16.89,3.4,21.93,9.12l-3.69,4.08c-4.65-5.63-11.25-8.15-18.53-8.15-8.64,0-15.14,5-15.14,11.93,0,7.67,8.05,9.9,16.89,12.23,10.48,3,21.93,6.31,21.93,19.41,0,8.35-5.53,18.34-23,18.34-10.68,0-18.73-4.27-23.68-10.28Z"/><path class="cls-1" d="M239.11,158.2c0-13.68,8.83-24.55,22.52-24.55,13.87,0,22.61,10.87,22.61,24.55s-8.74,24.65-22.61,24.65C247.94,182.85,239.11,171.89,239.11,158.2Zm39.69,0c0-10.38-6.11-20-17.17-20-10.87,0-17.08,9.61-17.08,20s6.21,20.09,17.08,20.09C272.69,178.29,278.8,168.69,278.8,158.2Z"/><path class="cls-1" d="M353,148.89c0-6.6-2.81-10.68-9.41-10.68-5.05,0-10.77,3.69-13.39,8v35.52H325.1v-32.8c0-6.6-2.72-10.68-9.42-10.68-4.95,0-10.58,3.79-13.39,8.06v35.42h-5.05V134.82h5.05v7.08c1.94-3,8.35-8.25,15.14-8.25,7.28,0,11.16,4.27,12.32,8.83,2.62-4.36,8.93-8.83,15.53-8.83,8.64,0,12.81,4.85,12.81,14.27v33.77h-5Z"/><path class="cls-1" d="M393.71,133.65c14.26,0,22.12,11.36,22.12,24.85v1.35h-39.2c.48,10.19,7.28,18.64,18.34,18.64A20.6,20.6,0,0,0,410.3,172l2.62,3.3c-4.66,4.86-10.58,7.57-18.34,7.57-13.68,0-23.48-10.19-23.48-24.65C371.1,144.62,380.7,133.65,393.71,133.65Zm-17.08,22.22h34.06c-.1-8-5.34-17.85-17.08-17.85C382.55,138,377,147.72,376.63,155.87Z"/><path class="cls-1" d="M429.81,172.66V139.28H422v-4.46h7.77V122H435v12.81h9.51v4.46H435v32.61c0,3.78,1.55,6.4,4.85,6.4a7.27,7.27,0,0,0,5.24-2.23l1.94,3.88c-1.84,1.75-4.07,2.91-8,2.91C432.82,182.85,429.81,179.07,429.81,172.66Z"/><path class="cls-1" d="M487.16,149.76c0-9-4.56-11.55-11.35-11.55-6,0-12.23,3.79-15.24,8.06v35.42h-5.05V117h5.05V141.9c3.4-4.08,10.09-8.25,16.89-8.25,9.51,0,14.75,4.47,14.75,15v33h-5Z"/><path class="cls-1" d="M506.57,123a4,4,0,0,1,3.88-3.89,3.89,3.89,0,0,1,0,7.77A4,4,0,0,1,506.57,123Zm1.36,11.84H513v46.87h-5.05Z"/><path class="cls-1" d="M560.33,150c0-9-4.56-11.75-11.35-11.75-6,0-12.23,3.79-15.24,8.06v35.42h-5V134.82h5v7.08c3.4-4.08,10.1-8.25,16.89-8.25,9.51,0,14.75,4.66,14.75,15.24v32.8h-5Z"/><path class="cls-1" d="M584.11,189.74c4.08,4.86,8.54,6.6,15.53,6.6,8.54,0,16-4.27,16-15v-7.37a20.32,20.32,0,0,1-16.3,8.73c-12.43,0-21-9.41-21-24.46,0-14.84,8.54-24.55,21-24.55a19.9,19.9,0,0,1,16.3,8.74v-7.57h5.14V181.2c0,14.37-9.7,19.51-21.15,19.51-7.86,0-12.91-1.46-18.44-7.08Zm31.54-43a18.87,18.87,0,0,0-15.43-8.54c-10.39,0-16.4,8.64-16.4,20s6,19.9,16.4,19.9a18.87,18.87,0,0,0,15.43-8.54Z"/><path class="cls-1" d="M688.63,141.61l-13.2,40.08h-4.85l-15.24-46.87h5.44L673.2,174.6l13.19-39.78h4.37L704,174.6l12.42-39.78h5.44l-15.24,46.87h-4.85Z"/><path class="cls-1" d="M751.22,133.65c14.27,0,22.13,11.36,22.13,24.85v1.35H734.14c.49,10.19,7.28,18.64,18.34,18.64A20.62,20.62,0,0,0,767.82,172l2.62,3.3c-4.66,4.86-10.58,7.57-18.34,7.57-13.69,0-23.49-10.19-23.49-24.65C728.61,144.62,738.22,133.65,751.22,133.65Zm-17.08,22.22H768.2c-.09-8-5.33-17.85-17.08-17.85C740.06,138,734.53,147.72,734.14,155.87Z"/><path class="cls-1" d="M818,150c0-9-4.56-11.75-11.35-11.75-6,0-12.23,3.79-15.24,8.06v35.42h-5V134.82h5v7.08c3.4-4.08,10.09-8.25,16.89-8.25,9.51,0,14.75,4.66,14.75,15.24v32.8h-5Z"/><path class="cls-1" d="M839.73,172.66V139.28H832v-4.46h7.77V122h5.14v12.81h9.51v4.46h-9.51v32.61c0,3.78,1.55,6.4,4.85,6.4a7.29,7.29,0,0,0,5.24-2.23l1.94,3.88c-1.84,1.75-4.07,2.91-7.95,2.91C842.74,182.85,839.73,179.07,839.73,172.66Z"/><path class="cls-1" d="M917.65,141.61l-13.19,40.08H899.6l-15.23-46.87h5.43l12.42,39.78,13.2-39.78h4.37L933,174.6l12.42-39.78h5.43l-15.23,46.87h-4.85Z"/><path class="cls-1" d="M960.35,134.82h5v8.05c4-5.24,9.32-9,15.82-9v5.53a10.31,10.31,0,0,0-2.52-.2c-4.76,0-11.16,4.27-13.3,8.35v34.16h-5Z"/><path class="cls-1" d="M988.4,158.2c0-13.68,8.83-24.55,22.52-24.55,13.87,0,22.61,10.87,22.61,24.55s-8.74,24.65-22.61,24.65C997.23,182.85,988.4,171.89,988.4,158.2Zm39.69,0c0-10.38-6.11-20-17.17-20-10.87,0-17.08,9.61-17.08,20s6.21,20.09,17.08,20.09C1022,178.29,1028.09,168.69,1028.09,158.2Z"/><path class="cls-1" d="M1078.17,150c0-9-4.56-11.75-11.36-11.75-6,0-12.22,3.79-15.23,8.06v35.42h-5V134.82h5v7.08c3.39-4.08,10.09-8.25,16.88-8.25,9.51,0,14.75,4.66,14.75,15.24v32.8h-5Z"/><path class="cls-1" d="M1102,189.74c4.07,4.86,8.54,6.6,15.52,6.6,8.54,0,16-4.27,16-15v-7.37a20.32,20.32,0,0,1-16.31,8.73c-12.42,0-21-9.41-21-24.46,0-14.84,8.54-24.55,21-24.55a19.91,19.91,0,0,1,16.31,8.74v-7.57h5.14V181.2c0,14.37-9.71,19.51-21.16,19.51-7.86,0-12.9-1.46-18.44-7.08Zm31.54-43a18.87,18.87,0,0,0-15.44-8.54c-10.38,0-16.4,8.64-16.4,20s6,19.9,16.4,19.9a18.87,18.87,0,0,0,15.44-8.54Z"/><path class="cls-1" d="M1182.1,134.14a4.22,4.22,0,1,1,0,8.44,4.22,4.22,0,1,1,0-8.44Zm0,40a4.38,4.38,0,0,1,4.37,4.17,4.48,4.48,0,0,1-4.37,4.37,4.4,4.4,0,0,1-4.27-4.37A4.29,4.29,0,0,1,1182.1,174.12Z"/><path class="cls-1" d="M1222.38,158.11a77.21,77.21,0,0,1,12.9-42.9l3,2.14c-6.11,12.52-10.28,23.87-10.28,40.76s4.17,28.24,10.28,40.66l-3,2.23A77.18,77.18,0,0,1,1222.38,158.11Z"/><path class="cls-1" d="M366.23,263.2c0-6.07,3.91-10.88,10-10.88s10,4.81,10,10.88-3.87,10.92-10,10.92S366.23,269.26,366.23,263.2Zm17.59,0c0-4.6-2.71-8.86-7.61-8.86s-7.57,4.26-7.57,8.86,2.75,8.9,7.57,8.9S383.82,267.84,383.82,263.2Z"/><path class="cls-1" d="M406,270.55a10.56,10.56,0,0,1-7.49,3.57c-4.25,0-6.53-2-6.53-6.67V252.83h2.23v14.11c0,4,2,5.16,5,5.16a9,9,0,0,0,6.75-3.44V252.83h2.23V273.6H406Z"/><path class="cls-1" d="M415.21,252.83h2.23v3.57c1.77-2.32,4.13-4,7-4v2.45a5,5,0,0,0-1.11-.08,7.92,7.92,0,0,0-5.9,3.7V273.6h-2.23Z"/><path class="cls-1" d="M439.5,269.17a8.67,8.67,0,0,0,6.71,3.06c3.48,0,5.55-1.72,5.55-4.13,0-2.67-2.84-3.44-5.81-4.21-3.48-.87-7.31-1.77-7.31-5.81,0-3.18,2.71-5.76,7.4-5.76a9.55,9.55,0,0,1,7.44,3.05L452.23,257a7.57,7.57,0,0,0-6.19-2.75c-3.23,0-5.2,1.59-5.2,3.74,0,2.37,2.66,3,5.54,3.74,3.57.91,7.57,1.89,7.57,6.32,0,3.36-2.58,6.11-7.78,6.11a10,10,0,0,1-8-3.27Z"/><path class="cls-1" d="M459.71,281.51V252.83H462v3.27a8.94,8.94,0,0,1,7.22-3.78c5.55,0,9.29,4.21,9.29,10.88s-3.74,10.92-9.29,10.92a8.89,8.89,0,0,1-7.22-3.87v11.26Zm9.08-27.17A8.38,8.38,0,0,0,462,258v10.27a8.45,8.45,0,0,0,6.84,3.79c4.64,0,7.26-3.87,7.26-8.9S473.43,254.34,468.79,254.34Z"/><path class="cls-1" d="M493,252.32c6.32,0,9.8,5,9.8,11v.6H485.47c.21,4.51,3.22,8.25,8.13,8.25a9.12,9.12,0,0,0,6.79-2.88l1.16,1.46a10.68,10.68,0,0,1-8.13,3.36c-6.06,0-10.4-4.52-10.4-10.92C483,257.18,487.27,252.32,493,252.32Zm-7.57,9.85h15.09c0-3.53-2.36-7.92-7.57-7.92C488.09,254.25,485.64,258.55,485.47,262.17Z"/><path class="cls-1" d="M517.5,252.32a8.59,8.59,0,0,1,7.36,3.52l-1.55,1.38a6.59,6.59,0,0,0-5.68-2.88c-4.86,0-7.82,3.87-7.82,8.86s3,8.9,7.82,8.9a6.62,6.62,0,0,0,5.68-2.93l1.55,1.38a8.5,8.5,0,0,1-7.36,3.57c-6.1,0-10.1-4.86-10.1-10.92S511.4,252.32,517.5,252.32Z"/><path class="cls-1" d="M529.24,247.59a1.75,1.75,0,0,1,1.72-1.72,1.72,1.72,0,0,1,0,3.44A1.76,1.76,0,0,1,529.24,247.59Zm.6,5.24h2.24V273.6h-2.24Z"/><path class="cls-1" d="M552.25,271.15a9.06,9.06,0,0,1-7.06,3c-3.56,0-7.26-2.45-7.26-6.92s3.65-6.88,7.26-6.88a9,9,0,0,1,7.06,3v-4.21c0-3.1-2.5-4.77-5.59-4.77a8.1,8.1,0,0,0-6.5,3.05l-1.24-1.55a10.07,10.07,0,0,1,8-3.48c4.22,0,7.57,2,7.57,6.66V273.6h-2.23Zm0-6.19a7.82,7.82,0,0,0-6.28-2.88c-3.44,0-5.68,2.19-5.68,5.16s2.24,5.12,5.68,5.12a7.79,7.79,0,0,0,6.28-2.84Z"/><path class="cls-1" d="M561.45,244.92h2.23V273.6h-2.23Z"/><path class="cls-1" d="M570.05,247.59a1.75,1.75,0,0,1,1.72-1.72,1.72,1.72,0,1,1,0,3.44A1.75,1.75,0,0,1,570.05,247.59Zm.6,5.24h2.24V273.6h-2.24Z"/><path class="cls-1" d="M578.78,271.75l12.29-16.94H578.78v-2H594v1.81l-12.43,17h12.6v2H578.78Z"/><path class="cls-1" d="M608.83,252.32c6.32,0,9.81,5,9.81,11v.6H601.26c.22,4.51,3.23,8.25,8.13,8.25a9.16,9.16,0,0,0,6.8-2.88l1.16,1.46a10.7,10.7,0,0,1-8.13,3.36c-6.06,0-10.41-4.52-10.41-10.92C598.81,257.18,603.07,252.32,608.83,252.32Zm-7.57,9.85h15.1c-.05-3.53-2.37-7.92-7.57-7.92C603.89,254.25,601.44,258.55,601.26,262.17Z"/><path class="cls-1" d="M639.71,270.29a8.87,8.87,0,0,1-7.23,3.83c-5.5,0-9.29-4.22-9.29-10.88s3.79-10.92,9.29-10.92a8.81,8.81,0,0,1,7.23,3.87V244.92H642V273.6h-2.28Zm0-12.17a8.31,8.31,0,0,0-6.84-3.78c-4.6,0-7.27,3.87-7.27,8.9s2.67,8.86,7.27,8.86a8.35,8.35,0,0,0,6.84-3.7Z"/><path class="cls-1" d="M660.52,269.6V254.81h-3.44v-2h3.44v-5.67h2.28v5.67H667v2H662.8v14.45c0,1.68.68,2.84,2.15,2.84a3.22,3.22,0,0,0,2.32-1l.86,1.72a4.7,4.7,0,0,1-3.53,1.29C661.85,274.12,660.52,272.44,660.52,269.6Z"/><path class="cls-1" d="M680.73,252.32c6.32,0,9.8,5,9.8,11v.6H673.16c.21,4.51,3.23,8.25,8.13,8.25a9.12,9.12,0,0,0,6.79-2.88l1.16,1.46a10.68,10.68,0,0,1-8.13,3.36c-6.06,0-10.4-4.52-10.4-10.92C670.71,257.18,675,252.32,680.73,252.32Zm-7.57,9.85h15.09c0-3.53-2.36-7.92-7.57-7.92C675.78,254.25,673.33,258.55,673.16,262.17Z"/><path class="cls-1" d="M709.49,271.15a9,9,0,0,1-7,3c-3.57,0-7.26-2.45-7.26-6.92s3.65-6.88,7.26-6.88a9,9,0,0,1,7,3v-4.21c0-3.1-2.49-4.77-5.59-4.77a8.07,8.07,0,0,0-6.49,3.05l-1.25-1.55a10.09,10.09,0,0,1,8-3.48c4.22,0,7.57,2,7.57,6.66V273.6h-2.24Zm0-6.19a7.79,7.79,0,0,0-6.27-2.88c-3.44,0-5.68,2.19-5.68,5.16s2.24,5.12,5.68,5.12a7.76,7.76,0,0,0,6.27-2.84Z"/><path class="cls-1" d="M743.42,259.07c0-2.93-1.25-4.73-4.17-4.73a7.67,7.67,0,0,0-5.93,3.53V273.6H731V259.07c0-2.93-1.21-4.73-4.17-4.73a8,8,0,0,0-5.94,3.57V273.6H718.7V252.83h2.23V256a9.15,9.15,0,0,1,6.71-3.65,5.23,5.23,0,0,1,5.46,3.91,8.65,8.65,0,0,1,6.88-3.91c3.83,0,5.68,2.15,5.68,6.32v15h-2.24Z"/><path class="cls-1" d="M762.55,263.2c0-6.07,3.92-10.88,10-10.88s10,4.81,10,10.88-3.87,10.92-10,10.92S762.55,269.26,762.55,263.2Zm17.59,0c0-4.6-2.71-8.86-7.61-8.86S765,258.6,765,263.2s2.75,8.9,7.57,8.9S780.14,267.84,780.14,263.2Z"/><path class="cls-1" d="M789,254.81H785.6v-2H789v-1.89c0-4.08,2.2-6.45,5.64-6.45a5.4,5.4,0,0,1,2.79.65l-.69,1.76a3.62,3.62,0,0,0-1.89-.47c-2.36,0-3.61,1.63-3.61,4.51v1.89h4.21v2h-4.21V273.6H789Z"/><path class="cls-1" d="M810.84,281.51V252.83h2.24v3.27a8.94,8.94,0,0,1,7.22-3.78c5.55,0,9.29,4.21,9.29,10.88s-3.74,10.92-9.29,10.92a8.89,8.89,0,0,1-7.22-3.87v11.26Zm9.08-27.17a8.39,8.39,0,0,0-6.84,3.7v10.27a8.47,8.47,0,0,0,6.84,3.79c4.64,0,7.26-3.87,7.26-8.9S824.56,254.34,819.92,254.34Z"/><path class="cls-1" d="M834.75,247.59a1.75,1.75,0,0,1,1.72-1.72,1.72,1.72,0,1,1,0,3.44A1.76,1.76,0,0,1,834.75,247.59Zm.6,5.24h2.24V273.6h-2.24Z"/><path class="cls-1" d="M859.86,270.29a8.85,8.85,0,0,1-7.22,3.83c-5.51,0-9.29-4.22-9.29-10.88s3.78-10.92,9.29-10.92a8.78,8.78,0,0,1,7.22,3.87V244.92h2.28V273.6h-2.28Zm0-12.17a8.28,8.28,0,0,0-6.83-3.78c-4.61,0-7.27,3.87-7.27,8.9s2.66,8.86,7.27,8.86a8.31,8.31,0,0,0,6.83-3.7Z"/><path class="cls-1" d="M870.44,277.17c1.81,2.15,3.78,2.93,6.88,2.93,3.78,0,7.1-1.9,7.1-6.67v-3.27a9,9,0,0,1-7.23,3.87c-5.5,0-9.29-4.17-9.29-10.83s3.79-10.88,9.29-10.88a8.81,8.81,0,0,1,7.23,3.87v-3.36h2.27v20.56c0,6.36-4.3,8.64-9.37,8.64-3.48,0-5.72-.64-8.17-3.14Zm14-19.05a8.37,8.37,0,0,0-6.84-3.78c-4.6,0-7.27,3.83-7.27,8.86S873,272,877.58,272a8.37,8.37,0,0,0,6.84-3.78Z"/><path class="cls-1" d="M902.43,252.32c6.32,0,9.81,5,9.81,11v.6H894.86c.22,4.51,3.23,8.25,8.13,8.25a9.16,9.16,0,0,0,6.8-2.88l1.16,1.46a10.7,10.7,0,0,1-8.13,3.36c-6.06,0-10.41-4.52-10.41-10.92C892.41,257.18,896.67,252.32,902.43,252.32Zm-7.57,9.85H910c-.05-3.53-2.37-7.92-7.57-7.92C897.49,254.25,895,258.55,894.86,262.17Z"/><path class="cls-1" d="M916.79,263.2c0-6.07,3.92-10.88,10-10.88s10,4.81,10,10.88-3.87,10.92-10,10.92S916.79,269.26,916.79,263.2Zm17.59,0c0-4.6-2.71-8.86-7.61-8.86s-7.57,4.26-7.57,8.86,2.75,8.9,7.57,8.9S934.38,267.84,934.38,263.2Z"/><path class="cls-1" d="M956.57,259.54c0-4-2-5.2-5-5.2a8.88,8.88,0,0,0-6.75,3.57V273.6h-2.24V252.83h2.24V256a10.53,10.53,0,0,1,7.48-3.65c4.21,0,6.53,2.06,6.53,6.75V273.6h-2.23Z"/><path class="cls-1" d="M965.3,269.17a8.64,8.64,0,0,0,6.71,3.06c3.48,0,5.54-1.72,5.54-4.13,0-2.67-2.84-3.44-5.8-4.21-3.49-.87-7.31-1.77-7.31-5.81,0-3.18,2.71-5.76,7.39-5.76a9.53,9.53,0,0,1,7.44,3.05L978,257a7.59,7.59,0,0,0-6.2-2.75c-3.22,0-5.2,1.59-5.2,3.74,0,2.37,2.67,3,5.55,3.74,3.57.91,7.57,1.89,7.57,6.32,0,3.36-2.58,6.11-7.79,6.11a10.07,10.07,0,0,1-8-3.27Z"/><path class="cls-1" d="M1009.84,271.15a9,9,0,0,1-7.05,3c-3.57,0-7.26-2.45-7.26-6.92s3.65-6.88,7.26-6.88a9,9,0,0,1,7.05,3v-4.21c0-3.1-2.49-4.77-5.59-4.77a8.07,8.07,0,0,0-6.49,3.05l-1.25-1.55a10.09,10.09,0,0,1,8-3.48c4.22,0,7.57,2,7.57,6.66V273.6h-2.24Zm0-6.19a7.79,7.79,0,0,0-6.27-2.88c-3.44,0-5.68,2.19-5.68,5.16s2.24,5.12,5.68,5.12a7.76,7.76,0,0,0,6.27-2.84Z"/><path class="cls-1" d="M1019.05,252.83h2.23v3.57c1.76-2.32,4.13-4,7-4v2.45a5.1,5.1,0,0,0-1.12-.08,7.92,7.92,0,0,0-5.89,3.7V273.6h-2.23Z"/><path class="cls-1" d="M1041.49,252.32c6.32,0,9.8,5,9.8,11v.6h-17.37c.22,4.51,3.23,8.25,8.13,8.25a9.12,9.12,0,0,0,6.79-2.88l1.17,1.46a10.7,10.7,0,0,1-8.13,3.36c-6.06,0-10.41-4.52-10.41-10.92C1031.47,257.18,1035.73,252.32,1041.49,252.32Zm-7.57,9.85H1049c0-3.53-2.37-7.92-7.57-7.92C1036.55,254.25,1034.1,258.55,1033.92,262.17Z"/><path class="cls-1" d="M439.57,295.84l-5.85,17.76h-2.15l-6.75-20.77h2.41l5.5,17.63,5.85-17.63h1.93l5.85,17.63,5.5-17.63h2.41l-6.75,20.77h-2.15Z"/><path class="cls-1" d="M457.28,303.2c0-6.07,3.92-10.88,10-10.88s10,4.81,10,10.88-3.87,10.92-10,10.92S457.28,309.26,457.28,303.2Zm17.59,0c0-4.6-2.71-8.86-7.61-8.86s-7.57,4.26-7.57,8.86,2.75,8.9,7.57,8.9S474.87,307.84,474.87,303.2Z"/><path class="cls-1" d="M483,292.83h2.24v3.57c1.76-2.32,4.12-4,7-4v2.45a5,5,0,0,0-1.11-.08,7.89,7.89,0,0,0-5.89,3.7V313.6H483Z"/><path class="cls-1" d="M502.78,303.71l-3.87,3.66v6.23h-2.24V284.92h2.24V304.7l12.25-11.87h3l-9.68,9.38,9.63,11.39h-3Z"/><path class="cls-1" d="M517.78,287.59a1.75,1.75,0,0,1,1.72-1.72,1.72,1.72,0,1,1,0,3.44A1.76,1.76,0,0,1,517.78,287.59Zm.6,5.24h2.24V313.6h-2.24Z"/><path class="cls-1" d="M541.6,299.54c0-4-2-5.2-5-5.2a8.92,8.92,0,0,0-6.75,3.57V313.6h-2.23V292.83h2.23V296a10.55,10.55,0,0,1,7.48-3.65c4.22,0,6.54,2.06,6.54,6.75V313.6H541.6Z"/><path class="cls-1" d="M552.14,317.17c1.81,2.15,3.78,2.93,6.88,2.93,3.78,0,7.09-1.9,7.09-6.67v-3.27a9,9,0,0,1-7.22,3.87c-5.5,0-9.29-4.17-9.29-10.83s3.79-10.88,9.29-10.88a8.78,8.78,0,0,1,7.22,3.87v-3.36h2.28v20.56c0,6.36-4.3,8.64-9.37,8.64-3.48,0-5.72-.64-8.17-3.14Zm14-19.05a8.34,8.34,0,0,0-6.83-3.78c-4.6,0-7.27,3.83-7.27,8.86s2.67,8.81,7.27,8.81a8.34,8.34,0,0,0,6.83-3.78Z"/><path class="cls-1" d="M600.47,299.46c0-4-2-5.12-5-5.12a8.88,8.88,0,0,0-6.75,3.57V313.6h-2.24V284.92h2.24V296a10.53,10.53,0,0,1,7.48-3.65c4.21,0,6.54,2,6.54,6.66V313.6h-2.24Z"/><path class="cls-1" d="M622.87,311.15a9,9,0,0,1-7,3c-3.57,0-7.27-2.45-7.27-6.92s3.66-6.88,7.27-6.88a9,9,0,0,1,7,3v-4.21c0-3.1-2.49-4.77-5.59-4.77a8.07,8.07,0,0,0-6.49,3.05l-1.25-1.55a10.09,10.09,0,0,1,8-3.48c4.21,0,7.57,2,7.57,6.66V313.6h-2.24Zm0-6.19a7.8,7.8,0,0,0-6.28-2.88c-3.44,0-5.67,2.19-5.67,5.16s2.23,5.12,5.67,5.12a7.76,7.76,0,0,0,6.28-2.84Z"/><path class="cls-1" d="M632.07,292.83h2.24v3.57c1.76-2.32,4.13-4,7-4v2.45a5.1,5.1,0,0,0-1.12-.08,7.91,7.91,0,0,0-5.89,3.7V313.6h-2.24Z"/><path class="cls-1" d="M661,310.29a8.85,8.85,0,0,1-7.22,3.83c-5.5,0-9.29-4.22-9.29-10.88s3.79-10.92,9.29-10.92a8.78,8.78,0,0,1,7.22,3.87V284.92h2.28V313.6H661Zm0-12.17a8.28,8.28,0,0,0-6.83-3.78c-4.6,0-7.27,3.87-7.27,8.9s2.67,8.86,7.27,8.86a8.31,8.31,0,0,0,6.83-3.7Z"/><path class="cls-1" d="M681.82,309.6V294.81h-3.44v-2h3.44v-5.67h2.28v5.67h4.22v2H684.1v14.45c0,1.68.69,2.84,2.15,2.84a3.26,3.26,0,0,0,2.33-1l.86,1.72a4.7,4.7,0,0,1-3.53,1.29C683.16,314.12,681.82,312.44,681.82,309.6Z"/><path class="cls-1" d="M692,303.2c0-6.07,3.91-10.88,10-10.88s10,4.81,10,10.88-3.87,10.92-10,10.92S692,309.26,692,303.2Zm17.58,0c0-4.6-2.71-8.86-7.61-8.86s-7.57,4.26-7.57,8.86,2.76,8.9,7.57,8.9S709.6,307.84,709.6,303.2Z"/><path class="cls-1" d="M728.44,309.17a8.63,8.63,0,0,0,6.7,3.06c3.49,0,5.55-1.72,5.55-4.13,0-2.67-2.84-3.44-5.8-4.21-3.49-.87-7.31-1.77-7.31-5.81,0-3.18,2.71-5.76,7.39-5.76a9.53,9.53,0,0,1,7.44,3.05L741.16,297a7.57,7.57,0,0,0-6.19-2.75c-3.22,0-5.2,1.59-5.2,3.74,0,2.37,2.66,3,5.55,3.74,3.56.91,7.56,1.89,7.56,6.32,0,3.36-2.58,6.11-7.78,6.11a10.07,10.07,0,0,1-8-3.27Z"/><path class="cls-1" d="M747.44,303.2c0-6.07,3.92-10.88,10-10.88s10,4.81,10,10.88-3.87,10.92-10,10.92S747.44,309.26,747.44,303.2Zm17.59,0c0-4.6-2.71-8.86-7.61-8.86s-7.57,4.26-7.57,8.86,2.75,8.9,7.57,8.9S765,307.84,765,303.2Z"/><path class="cls-1" d="M773.2,284.92h2.23V313.6H773.2Z"/><path class="cls-1" d="M779.22,292.83h2.49L789.28,311l7.48-18.15h2.54l-8.77,20.77H788Z"/><path class="cls-1" d="M811.9,292.32c6.32,0,9.8,5,9.8,11v.6H804.33c.21,4.51,3.22,8.25,8.13,8.25a9.12,9.12,0,0,0,6.79-2.88l1.16,1.46a10.68,10.68,0,0,1-8.12,3.36c-6.07,0-10.41-4.52-10.41-10.92C801.88,297.18,806.14,292.32,811.9,292.32Zm-7.57,9.85h15.09c0-3.53-2.36-7.92-7.56-7.92C807,294.25,804.5,298.55,804.33,302.17Z"/><path class="cls-1" d="M839,309.6V294.81h-3.44v-2H839v-5.67h2.28v5.67h4.21v2h-4.21v14.45c0,1.68.69,2.84,2.15,2.84a3.22,3.22,0,0,0,2.32-1l.86,1.72a4.69,4.69,0,0,1-3.52,1.29C840.36,314.12,839,312.44,839,309.6Z"/><path class="cls-1" d="M864.44,299.46c0-4-2-5.12-5-5.12a8.88,8.88,0,0,0-6.75,3.57V313.6h-2.24V284.92h2.24V296a10.55,10.55,0,0,1,7.48-3.65c4.22,0,6.54,2,6.54,6.66V313.6h-2.24Z"/><path class="cls-1" d="M882.46,292.32c6.32,0,9.8,5,9.8,11v.6H874.89c.22,4.51,3.23,8.25,8.13,8.25a9.12,9.12,0,0,0,6.79-2.88l1.16,1.46a10.66,10.66,0,0,1-8.12,3.36c-6.07,0-10.41-4.52-10.41-10.92C872.44,297.18,876.7,292.32,882.46,292.32Zm-7.57,9.85H890c0-3.53-2.36-7.92-7.56-7.92C877.51,294.25,875.06,298.55,874.89,302.17Z"/><path class="cls-1" d="M918.06,292.32a8.57,8.57,0,0,1,7.35,3.52l-1.54,1.38a6.59,6.59,0,0,0-5.68-2.88c-4.86,0-7.82,3.87-7.82,8.86s3,8.9,7.82,8.9a6.62,6.62,0,0,0,5.68-2.93l1.54,1.38a8.48,8.48,0,0,1-7.35,3.57c-6.1,0-10.1-4.86-10.1-10.92S912,292.32,918.06,292.32Z"/><path class="cls-1" d="M943.6,311.15a9,9,0,0,1-7.05,3c-3.57,0-7.26-2.45-7.26-6.92s3.65-6.88,7.26-6.88a9,9,0,0,1,7.05,3v-4.21c0-3.1-2.49-4.77-5.59-4.77a8.07,8.07,0,0,0-6.49,3.05l-1.25-1.55a10.09,10.09,0,0,1,8-3.48c4.21,0,7.57,2,7.57,6.66V313.6H943.6Zm0-6.19a7.79,7.79,0,0,0-6.27-2.88c-3.45,0-5.68,2.19-5.68,5.16s2.23,5.12,5.68,5.12a7.76,7.76,0,0,0,6.27-2.84Z"/><path class="cls-1" d="M952.33,309.17a8.67,8.67,0,0,0,6.71,3.06c3.48,0,5.55-1.72,5.55-4.13,0-2.67-2.84-3.44-5.81-4.21-3.48-.87-7.31-1.77-7.31-5.81,0-3.18,2.71-5.76,7.4-5.76a9.55,9.55,0,0,1,7.44,3.05L965.06,297a7.57,7.57,0,0,0-6.19-2.75c-3.23,0-5.2,1.59-5.2,3.74,0,2.37,2.66,3,5.54,3.74,3.57.91,7.57,1.89,7.57,6.32,0,3.36-2.58,6.11-7.78,6.11a10,10,0,0,1-8-3.27Z"/><path class="cls-1" d="M981.36,292.32c6.32,0,9.8,5,9.8,11v.6H973.79c.21,4.51,3.22,8.25,8.13,8.25a9.12,9.12,0,0,0,6.79-2.88l1.16,1.46a10.68,10.68,0,0,1-8.13,3.36c-6.06,0-10.4-4.52-10.4-10.92C971.34,297.18,975.6,292.32,981.36,292.32Zm-7.57,9.85h15.09c0-3.53-2.36-7.92-7.57-7.92C976.41,294.25,974,298.55,973.79,302.17Z"/><path class="cls-1" d="M420.3,533.14h2.45v28.68H420.3Z"/><path class="cls-1" d="M443.82,547.76c0-4-2-5.2-5-5.2a8.92,8.92,0,0,0-6.75,3.57v15.69h-2.23V541.06H432v3.13a10.55,10.55,0,0,1,7.48-3.65c4.22,0,6.54,2.06,6.54,6.75v14.53h-2.24Z"/><path class="cls-1" d="M464.59,557.83V543h-3.44v-2h3.44v-5.68h2.28v5.68h4.22v2h-4.22v14.45c0,1.68.69,2.84,2.15,2.84a3.22,3.22,0,0,0,2.32-1l.86,1.72a4.66,4.66,0,0,1-3.52,1.29C465.93,562.34,464.59,560.66,464.59,557.83Z"/><path class="cls-1" d="M490,547.68c0-4-2-5.12-5-5.12a8.92,8.92,0,0,0-6.75,3.57v15.69H476V533.14h2.23v11.05a10.57,10.57,0,0,1,7.48-3.65c4.22,0,6.54,2,6.54,6.66v14.62H490Z"/><path class="cls-1" d="M508,540.54c6.32,0,9.81,5,9.81,11v.6H500.45c.22,4.51,3.23,8.26,8.13,8.26a9.1,9.1,0,0,0,6.79-2.89l1.17,1.47a10.73,10.73,0,0,1-8.13,3.35c-6.06,0-10.41-4.51-10.41-10.92C498,545.4,502.26,540.54,508,540.54Zm-7.57,9.85h15.1c0-3.53-2.37-7.92-7.57-7.92C503.08,542.47,500.63,546.77,500.45,550.39Z"/><path class="cls-1" d="M559.45,547.29c0-2.92-1.25-4.73-4.17-4.73a7.69,7.69,0,0,0-5.94,3.53v15.73h-2.27V547.29c0-2.92-1.21-4.73-4.18-4.73-2.19,0-4.68,1.68-5.93,3.57v15.69h-2.24V541.06H537v3.13a9.15,9.15,0,0,1,6.71-3.65,5.23,5.23,0,0,1,5.46,3.91,8.63,8.63,0,0,1,6.88-3.91c3.83,0,5.67,2.15,5.67,6.32v15h-2.23Z"/><path class="cls-1" d="M577.47,540.54c6.32,0,9.8,5,9.8,11v.6H569.9c.21,4.51,3.22,8.26,8.12,8.26a9.1,9.1,0,0,0,6.8-2.89L586,559a10.73,10.73,0,0,1-8.13,3.35c-6.06,0-10.4-4.51-10.4-10.92C567.45,545.4,571.7,540.54,577.47,540.54Zm-7.57,9.85H585c0-3.53-2.37-7.92-7.57-7.92C572.52,542.47,570.07,546.77,569.9,550.39Z"/><path class="cls-1" d="M606.23,559.37a9,9,0,0,1-7.05,3c-3.57,0-7.27-2.45-7.27-6.92s3.66-6.88,7.27-6.88a9,9,0,0,1,7.05,3v-4.21c0-3.1-2.49-4.77-5.59-4.77a8.07,8.07,0,0,0-6.49,3.05L592.9,544a10.09,10.09,0,0,1,8-3.48c4.21,0,7.57,2,7.57,6.66v14.62h-2.24Zm0-6.19A7.8,7.8,0,0,0,600,550.3c-3.44,0-5.67,2.19-5.67,5.16s2.23,5.12,5.67,5.12a7.76,7.76,0,0,0,6.28-2.84Z"/><path class="cls-1" d="M629.45,547.76c0-4-2-5.2-5-5.2a8.88,8.88,0,0,0-6.75,3.57v15.69h-2.24V541.06h2.24v3.13a10.53,10.53,0,0,1,7.48-3.65c4.22,0,6.54,2.06,6.54,6.75v14.53h-2.24Z"/><path class="cls-1" d="M639.08,557.83V543h-3.44v-2h3.44v-5.68h2.28v5.68h4.22v2h-4.22v14.45c0,1.68.69,2.84,2.15,2.84a3.22,3.22,0,0,0,2.32-1l.86,1.72a4.66,4.66,0,0,1-3.52,1.29C640.42,562.34,639.08,560.66,639.08,557.83Z"/><path class="cls-1" d="M649.88,535.81a1.75,1.75,0,0,1,1.72-1.72,1.72,1.72,0,1,1,0,3.44A1.75,1.75,0,0,1,649.88,535.81Zm.6,5.25h2.23v20.76h-2.23Z"/><path class="cls-1" d="M684.4,547.29c0-2.92-1.24-4.73-4.17-4.73a7.69,7.69,0,0,0-5.93,3.53v15.73H672V547.29c0-2.92-1.2-4.73-4.17-4.73a8,8,0,0,0-5.93,3.57v15.69h-2.24V541.06h2.24v3.13a9.12,9.12,0,0,1,6.7-3.65,5.22,5.22,0,0,1,5.46,3.91,8.67,8.67,0,0,1,6.88-3.91c3.83,0,5.68,2.15,5.68,6.32v15H684.4Z"/><path class="cls-1" d="M702.42,540.54c6.32,0,9.8,5,9.8,11v.6H694.85c.22,4.51,3.23,8.26,8.13,8.26a9.1,9.1,0,0,0,6.79-2.89l1.16,1.47a10.69,10.69,0,0,1-8.12,3.35c-6.07,0-10.41-4.51-10.41-10.92C692.4,545.4,696.66,540.54,702.42,540.54Zm-7.57,9.85H710c-.05-3.53-2.37-7.92-7.57-7.92C697.48,542.47,695,546.77,694.85,550.39Z"/><path class="cls-1" d="M716.61,566a5.88,5.88,0,0,0,2.5-4l-.43,0a1.73,1.73,0,0,1-1.77-1.8,1.87,1.87,0,0,1,1.85-1.85c1.16,0,2.19,1,2.19,2.75a7.57,7.57,0,0,1-3.09,5.89Z"/><path class="cls-1" d="M738.15,569.74V541.06h2.24v3.26a8.94,8.94,0,0,1,7.22-3.78c5.55,0,9.29,4.21,9.29,10.88s-3.74,10.92-9.29,10.92a8.89,8.89,0,0,1-7.22-3.87v11.27Zm9.08-27.18a8.38,8.38,0,0,0-6.84,3.7v10.28a8.47,8.47,0,0,0,6.84,3.78c4.64,0,7.26-3.87,7.26-8.9S751.87,542.56,747.23,542.56Z"/><path class="cls-1" d="M762.66,533.14h2.24v28.68h-2.24Z"/><path class="cls-1" d="M780.68,540.54c6.32,0,9.8,5,9.8,11v.6H773.11c.22,4.51,3.23,8.26,8.13,8.26a9.1,9.1,0,0,0,6.79-2.89l1.16,1.47a10.69,10.69,0,0,1-8.12,3.35c-6.07,0-10.41-4.51-10.41-10.92C770.66,545.4,774.92,540.54,780.68,540.54Zm-7.57,9.85H788.2c0-3.53-2.36-7.92-7.56-7.92C775.73,542.47,773.28,546.77,773.11,550.39Z"/><path class="cls-1" d="M809.45,559.37a9.07,9.07,0,0,1-7.06,3c-3.56,0-7.26-2.45-7.26-6.92s3.65-6.88,7.26-6.88a9,9,0,0,1,7.06,3v-4.21c0-3.1-2.5-4.77-5.59-4.77a8.09,8.09,0,0,0-6.5,3.05L796.12,544a10.07,10.07,0,0,1,8-3.48c4.22,0,7.57,2,7.57,6.66v14.62h-2.23Zm0-6.19a7.82,7.82,0,0,0-6.28-2.88c-3.44,0-5.68,2.19-5.68,5.16s2.24,5.12,5.68,5.12a7.79,7.79,0,0,0,6.28-2.84Z"/><path class="cls-1" d="M818.17,557.4a8.69,8.69,0,0,0,6.71,3.05c3.49,0,5.55-1.72,5.55-4.13,0-2.67-2.84-3.44-5.81-4.21-3.48-.86-7.31-1.77-7.31-5.81,0-3.18,2.71-5.76,7.4-5.76a9.58,9.58,0,0,1,7.44,3.05l-1.25,1.59a7.57,7.57,0,0,0-6.19-2.75c-3.22,0-5.2,1.59-5.2,3.74,0,2.37,2.66,3,5.54,3.74,3.57.91,7.57,1.9,7.57,6.32,0,3.36-2.58,6.11-7.78,6.11a10.07,10.07,0,0,1-8-3.27Z"/><path class="cls-1" d="M847.2,540.54c6.32,0,9.8,5,9.8,11v.6H839.63c.22,4.51,3.23,8.26,8.13,8.26a9.1,9.1,0,0,0,6.79-2.89l1.16,1.47a10.69,10.69,0,0,1-8.12,3.35c-6.07,0-10.41-4.51-10.41-10.92C837.18,545.4,841.44,540.54,847.2,540.54Zm-7.57,9.85h15.09c0-3.53-2.36-7.92-7.56-7.92C842.25,542.47,839.8,546.77,839.63,550.39Z"/><path class="cls-1" d="M873.9,541.06h2.24v3.56c1.76-2.32,4.13-4,7-4v2.45A4.54,4.54,0,0,0,882,543a7.89,7.89,0,0,0-5.89,3.7v15.13H873.9Z"/><path class="cls-1" d="M896.35,540.54c6.32,0,9.8,5,9.8,11v.6H888.78c.21,4.51,3.22,8.26,8.13,8.26a9.1,9.1,0,0,0,6.79-2.89l1.16,1.47a10.71,10.71,0,0,1-8.13,3.35c-6.06,0-10.4-4.51-10.4-10.92C886.33,545.4,890.58,540.54,896.35,540.54Zm-7.57,9.85h15.09c0-3.53-2.36-7.92-7.57-7.92C891.4,542.47,889,546.77,888.78,550.39Z"/><path class="cls-1" d="M912.64,543H909.2v-2h3.44v-1.9c0-4.08,2.2-6.45,5.64-6.45a5.5,5.5,0,0,1,2.79.65l-.69,1.76a3.62,3.62,0,0,0-1.89-.47c-2.36,0-3.61,1.63-3.61,4.51v1.9h4.21v2h-4.21v18.79h-2.24Z"/><path class="cls-1" d="M923.31,541.06h2.23v3.56c1.77-2.32,4.13-4,7-4v2.45a4.54,4.54,0,0,0-1.12-.09,7.92,7.92,0,0,0-5.89,3.7v15.13h-2.23Z"/><path class="cls-1" d="M945.75,540.54c6.32,0,9.81,5,9.81,11v.6H938.18c.22,4.51,3.23,8.26,8.13,8.26a9.1,9.1,0,0,0,6.79-2.89l1.17,1.47a10.73,10.73,0,0,1-8.13,3.35c-6.06,0-10.41-4.51-10.41-10.92C935.73,545.4,940,540.54,945.75,540.54Zm-7.57,9.85h15.1c0-3.53-2.37-7.92-7.57-7.92C940.81,542.47,938.36,546.77,938.18,550.39Z"/><path class="cls-1" d="M960.84,557.4a8.69,8.69,0,0,0,6.71,3.05c3.49,0,5.55-1.72,5.55-4.13,0-2.67-2.84-3.44-5.81-4.21-3.48-.86-7.3-1.77-7.3-5.81,0-3.18,2.7-5.76,7.39-5.76a9.58,9.58,0,0,1,7.44,3.05l-1.25,1.59a7.57,7.57,0,0,0-6.19-2.75c-3.22,0-5.2,1.59-5.2,3.74,0,2.37,2.66,3,5.54,3.74,3.57.91,7.57,1.9,7.57,6.32,0,3.36-2.58,6.11-7.78,6.11a10.07,10.07,0,0,1-8-3.27Z"/><path class="cls-1" d="M995.07,547.68c0-4-2-5.12-5-5.12a8.9,8.9,0,0,0-6.75,3.57v15.69h-2.23V533.14h2.23v11.05a10.55,10.55,0,0,1,7.48-3.65c4.22,0,6.54,2,6.54,6.66v14.62h-2.24Z"/><path class="cls-1" d="M590.75,608.23c1.38,0,2.32-.56,3.14-2.54l1.63-3.69-8.77-20.94h2.5l7.56,18.14,7.49-18.14h2.53l-10.75,25.32c-1.11,2.62-2.88,3.87-5.33,3.87a8.78,8.78,0,0,1-2.19-.3l.39-2.06A5.27,5.27,0,0,0,590.75,608.23Z"/><path class="cls-1" d="M609.41,591.42c0-6.06,3.92-10.88,10-10.88s10,4.82,10,10.88-3.87,10.92-10,10.92S609.41,597.48,609.41,591.42Zm17.59,0c0-4.6-2.71-8.86-7.61-8.86s-7.57,4.26-7.57,8.86,2.75,8.9,7.57,8.9S627,596.06,627,591.42Z"/><path class="cls-1" d="M649.19,598.77a10.54,10.54,0,0,1-7.48,3.57c-4.26,0-6.54-2-6.54-6.66V581.06h2.24v14.1c0,4,2,5.16,5,5.16a9,9,0,0,0,6.75-3.44V581.06h2.23v20.76h-2.23Z"/><path class="cls-1" d="M658.39,581.06h2.24v3.56c1.76-2.32,4.12-4,7-4v2.45a4.42,4.42,0,0,0-1.11-.09,7.89,7.89,0,0,0-5.89,3.7v15.13h-2.24Z"/><path class="cls-1" d="M683.16,573.14h2.23v11.27a8.87,8.87,0,0,1,7.23-3.87c5.54,0,9.28,4.34,9.28,10.92s-3.78,10.88-9.28,10.88a8.85,8.85,0,0,1-7.23-3.83v3.31h-2.23Zm9.07,27.18c4.64,0,7.27-3.83,7.27-8.86s-2.63-8.9-7.27-8.9a8.5,8.5,0,0,0-6.84,3.78v10.28A8.41,8.41,0,0,0,692.23,600.32Z"/><path class="cls-1" d="M707.71,581.06H710v3.56c1.76-2.32,4.12-4,7-4v2.45a4.42,4.42,0,0,0-1.11-.09,7.89,7.89,0,0,0-5.89,3.7v15.13h-2.24Z"/><path class="cls-1" d="M720.14,591.42c0-6.06,3.91-10.88,10-10.88s10,4.82,10,10.88-3.87,10.92-10,10.92S720.14,597.48,720.14,591.42Zm17.58,0c0-4.6-2.71-8.86-7.61-8.86s-7.57,4.26-7.57,8.86,2.76,8.9,7.57,8.9S737.72,596.06,737.72,591.42Z"/><path class="cls-1" d="M757.89,584.07,752,601.82h-2.15l-6.75-20.76h2.41l5.5,17.63,5.85-17.63h1.94l5.84,17.63,5.51-17.63h2.41l-6.76,20.76H763.7Z"/><path class="cls-1" d="M776.34,597.4a8.66,8.66,0,0,0,6.7,3.05c3.49,0,5.55-1.72,5.55-4.13,0-2.67-2.84-3.44-5.8-4.21-3.49-.86-7.31-1.77-7.31-5.81,0-3.18,2.71-5.76,7.39-5.76a9.57,9.57,0,0,1,7.44,3.05l-1.25,1.59a7.57,7.57,0,0,0-6.19-2.75c-3.22,0-5.2,1.59-5.2,3.74,0,2.37,2.67,3,5.55,3.74,3.57.91,7.56,1.9,7.56,6.32,0,3.36-2.58,6.11-7.78,6.11a10.07,10.07,0,0,1-8-3.27Z"/><path class="cls-1" d="M805.36,580.54c6.32,0,9.8,5,9.8,11v.6H797.79c.22,4.51,3.23,8.26,8.13,8.26a9.1,9.1,0,0,0,6.79-2.89l1.16,1.47a10.69,10.69,0,0,1-8.12,3.35c-6.06,0-10.41-4.51-10.41-10.92C795.34,585.4,799.6,580.54,805.36,580.54Zm-7.57,9.85h15.1c0-3.53-2.37-7.92-7.57-7.92C800.42,582.47,798,586.77,797.79,590.39Z"/><path class="cls-1" d="M820.93,581.06h2.23v3.56c1.77-2.32,4.13-4,7-4v2.45a4.5,4.5,0,0,0-1.12-.09,7.92,7.92,0,0,0-5.89,3.7v15.13h-2.23Z"/><path class="cls-2" d="M734.05,642.88l-21.89,11.88"/><path class="cls-2" d="M672.83,695.18a42,42,0,1,0,58.44-38.66,52.71,52.71,0,0,0-19.11-2.17"/><line class="cls-2" x1="730.64" y1="674.52" x2="712.16" y2="653.6"/><path class="cls-1" d="M683,417c-13.22,5.67-19.65,31.75,9.22,42s73.49,3,73.49,3-48.9-40-54.26-43.06C702.73,414,695.92,411.46,683,417Z"/><path class="cls-1" d="M756.57,466.89s-80.76,9.5-87.07-26.95c-5.52-31.89,30.14-27.71,30.14-27.71s-7.22-19-6-31.24a27,27,0,0,0-3.45-16.05c-2.93-.22-7.47-.87-12.06-1.55a3.16,3.16,0,0,1,.09.76,3.4,3.4,0,1,1-6.34-1.7c-4.88-.73-8.87-1.27-9.62-1.05a17.46,17.46,0,0,0-1.37,4s-11,3.69-11,6.16c0,1.06,2.57,1.23,5.48.9s7.94-1.23,10.62.66,8.5,2.62,3,13.05-21.81,42.7-5.48,61.34c0,0,13.7,17.82,29.13,23.61,1,8.5,2.18,14.66,6.54,20.69a81.17,81.17,0,0,0,.84,8.87s-1.51,5.3-6.2,6.78a26.8,26.8,0,0,1-13.84,0c-2.52-.93-6.55-1.73-8.64,3.14,1.59,0,2.85-1.48,4.11-.31a3.89,3.89,0,0,0-.84,2.59,11,11,0,0,1,2.43-1.17c.5,0-.5-.5.5,0s1.51,1.29,2.94,1.17,16.86,0,16.86,0,3-2.59,5.2-2.41,4.53,2.68,7.55,2.42,4.61-1.55,3.69-3c.87.75,1.94,1.17,2.09,1.51a3.68,3.68,0,0,0-3.69-3.24c-2.26,0-8.55.87-8.72-1.66s16.61-25.25,17.61-30.48c5.37,2.77,70.12,13.05,75.07,12.07C781.56,479.46,757.66,472.25,756.57,466.89Z"/><path class="cls-1" d="M697,362.85c-.85-2.31-.84-4.76-1.11-7.16A15.38,15.38,0,0,0,691,345.41a21.1,21.1,0,0,0-7.61-4.25c-5.18-1.7-10.11-.87-14.87,1.54a3.94,3.94,0,0,1-1,.52c-1.68.22-2.64,1.49-3.63,2.58a16.94,16.94,0,0,0-2.61,3.79c-1,2-1.72,4-2.52,6.05a2.53,2.53,0,0,1-1.47,1.53c-1.16.48-2.32.95-3.48,1.44-.71.3-.76.66-.18,1.19a1.89,1.89,0,0,0,1.16.47h0a6.31,6.31,0,0,0,1.14-.08h0l5.67-.51a37.69,37.69,0,0,1,8.62.47c2,.27,4,.56,6,.82l-.9-.09V361l2.92.3v.05l-.79-.08,0,.14,14,1.82v-.14l-.79-.08v-.13l2.28.23v.18l3.72.09C697,363.35,697.15,363.17,697,362.85Zm-32.89-6.19c0,.14,0,.29-.07.43-.08.46-.26.69-.76.39a2.82,2.82,0,0,0-.63-.24c-1.43-.49-1.21-.14-1.07-1.5.11-1,.12-1,1.13-.9C664.38,355,664.38,355,664.15,356.66Zm7.11-8.27a9.06,9.06,0,0,0-2.41,3.83c-.31.93-.68,1.84-1,2.77-.25.76-.43,1.55-.69,2.31a.63.63,0,0,1-.5.29c-.6,0-1.19-.11-1.84-.17.19-.49.34-.85.46-1.23.42-1.34.24-1.64-1.12-1.85-1.15-.18-1.24-.35-.72-1.39a5.2,5.2,0,0,1,.35-.6,29,29,0,0,1,1.94-2.65,10.44,10.44,0,0,1,2.64-2.33,2.39,2.39,0,0,1,2.77.07C671.55,347.71,671.69,348,671.26,348.39Zm3.78-6.65a18.5,18.5,0,0,1,10.59,1.36A29.67,29.67,0,0,0,675,341.74Zm15.41,16.64c0-.39-.09-.81-.09-1.22a11.92,11.92,0,0,0-1.16-5.22c-.56-1.14-.54-1.15.59-1.78A.8.8,0,0,0,690,350c.37-.36.63-.22.91.14a14.49,14.49,0,0,1,2.79,6.31c.17.86.24,1.74.36,2.64a3.49,3.49,0,0,0-.83-.53,15.52,15.52,0,0,0-1.8-.22A8.33,8.33,0,0,0,690.45,358.38Zm2,3.43c-1.06,0-1.06,0-.93-1.1a.49.49,0,0,0,0-.12h0c0-.27.07-.54.07-.81,0-.49.28-.6.71-.49l.36.09c1.37.25,1.37.25,1.18,1.61-.14,1-.14,1-1.17.84Z"/><path class="cls-1" d="M693.14,500.89c-.06-.78,1.65-3.55,4-7.13-5-4.91-6.8-20.23-6.8-20.23-1.08,0-4.68-2.2-7.77-4.21,1,7,2.3,12.36,6.27,17.6a74,74,0,0,0,.84,8.45s-1.51,5.05-6.21,6.46a27.94,27.94,0,0,1-13.84,0c-2.51-.88-6.54-1.64-8.63,3,1.59,0,2.85-1.41,4.11-.29a3.56,3.56,0,0,0-.84,2.46,11.3,11.3,0,0,1,2.43-1.11c.5,0-.5-.47.5,0s1.51,1.23,2.94,1.11c.19,0,.26,0,.92,0,1.22-.84,2.18-2.09,5.66-2.09a10,10,0,0,1,6.4,2.14c2.63,0,3.88,0,3.88,0s3-2.46,5.2-2.29a3.6,3.6,0,0,1,1.73.42,7.43,7.43,0,0,0,2.57-2.55C693.05,502.48,693.17,501.34,693.14,500.89Z"/><line class="cls-3" x1="357.89" y1="522.29" x2="1059.49" y2="522.29"/><line class="cls-3" x1="357.89" y1="328.85" x2="1059.49" y2="328.85"/><line class="cls-4" x1="182.05" y1="196.18" x2="562.57" y2="196.18"/><line class="cls-4" x1="653.9" y1="196.18" x2="1078.83" y2="196.18"/><line class="cls-3" x1="1023.67" y1="292.03" x2="1023.67" y2="298.03"/><line class="cls-5" x1="1023.67" y1="310.56" x2="1023.67" y2="554.85"/><line class="cls-3" x1="1023.67" y1="561.11" x2="1023.67" y2="567.11"/><line class="cls-3" x1="391.99" y1="292.03" x2="391.99" y2="298.03"/><line class="cls-5" x1="391.99" y1="310.56" x2="391.99" y2="554.85"/><line class="cls-3" x1="391.99" y1="561.11" x2="391.99" y2="567.11"/></svg>